<?xml version="1.0" encoding="utf-8"?>
<!-- Generator: Adobe Illustrator 25.0.1, SVG Export Plug-In . SVG Version: 6.00 Build 0)  -->
<svg version="1.1" id="Layer_1" xmlns="http://www.w3.org/2000/svg" xmlns:xlink="http://www.w3.org/1999/xlink" x="0px" y="0px"
	 viewBox="0 0 1920 525" style="enable-background:new 0 0 1920 525;" xml:space="preserve">
<style type="text/css">
	.st0{opacity:0.05;fill:#4A60AC;enable-background:new    ;}
</style>
<g>
	<g>
		<path class="st0" d="M278.15,295.07L278.15,295.07c-17.14-17.14-17.14-44.94,0-62.08l150.1-150.12
			c17.14-17.14,44.93-17.14,62.08,0l0,0c17.14,17.14,17.14,44.94,0,62.08l-150.1,150.12C323.08,312.22,295.29,312.22,278.15,295.07z
			"/>
		<path class="st0" d="M490.12,445.07L490.12,445.07c17.13-17.14,17.13-44.94,0-62.08L340.16,232.87
			c-17.13-17.14-44.89-17.14-62.02,0l0,0c-17.13,17.14-17.13,44.94,0,62.08L428.1,445.07C445.23,462.22,472.99,462.22,490.12,445.07
			z"/>
	</g>
	<g>
		<path class="st0" d="M1430.21,82.81L1430.21,82.81c-17.13,17.15-17.13,44.96,0,62.12l150.02,150.2
			c17.13,17.15,44.91,17.15,62.04,0l0,0c17.13-17.15,17.13-44.96,0-62.12l-150.02-150.2C1475.12,65.66,1447.34,65.66,1430.21,82.81z
			"/>
		<path class="st0" d="M1642.17,232.81L1642.17,232.81c17.12,17.15,17.12,44.96,0,62.12l-149.88,150.2
			c-17.12,17.15-44.87,17.15-61.98,0l0,0c-17.12-17.15-17.12-44.96,0-62.12l149.88-150.2
			C1597.3,215.66,1625.06,215.66,1642.17,232.81z"/>
	</g>
	<path class="st0" d="M1336.42,64.46L1336.42,64.46c22.09,5.92,35.2,28.63,29.28,50.72l-84.94,317.02
		c-5.92,22.09-28.62,35.2-50.71,29.28l0,0c-22.09-5.92-35.2-28.63-29.28-50.72l84.94-317.02
		C1291.63,71.65,1314.33,58.54,1336.42,64.46z"/>
</g>
</svg>
