<?xml version="1.0" encoding="utf-8"?>
<!-- Generator: Adobe Illustrator 24.2.1, SVG Export Plug-In . SVG Version: 6.00 Build 0)  -->
<svg version="1.1" id="Layer_1" xmlns="http://www.w3.org/2000/svg" xmlns:xlink="http://www.w3.org/1999/xlink" x="0px" y="0px"
	 viewBox="0 0 1440 525" style="enable-background:new 0 0 1440 525;" xml:space="preserve">
<style type="text/css">
	.st0{opacity:0.05;fill:#4A60AC;enable-background:new    ;}
</style>
<g>
	<path class="st0" d="M37.91,294.1L37.91,294.1c-17.14-17.14-17.14-44.94,0-62.08L188.01,81.9c17.14-17.14,44.93-17.14,62.08,0l0,0
		c17.14,17.14,17.14,44.94,0,62.08L99.99,294.1C82.84,311.25,55.05,311.25,37.91,294.1z"/>
	<path class="st0" d="M249.88,444.1L249.88,444.1c17.13-17.14,17.13-44.94,0-62.08L99.92,231.9c-17.13-17.14-44.89-17.14-62.02,0
		l0,0c-17.13,17.14-17.13,44.94,0,62.08L187.86,444.1C204.99,461.25,232.75,461.25,249.88,444.1z"/>
</g>
<g>
	<path class="st0" d="M1189.97,81.84L1189.97,81.84c-17.13,17.15-17.13,44.96,0,62.12l150.02,150.2c17.13,17.15,44.91,17.15,62.04,0
		l0,0c17.13-17.15,17.13-44.96,0-62.12l-150.02-150.2C1234.88,64.69,1207.1,64.69,1189.97,81.84z"/>
	<path class="st0" d="M1401.93,231.84L1401.93,231.84c17.12,17.15,17.12,44.96,0,62.12l-149.88,150.2
		c-17.12,17.15-44.87,17.15-61.98,0l0,0c-17.12-17.15-17.12-44.96,0-62.12l149.88-150.2
		C1357.06,214.69,1384.82,214.69,1401.93,231.84z"/>
</g>
<path class="st0" d="M1096.18,63.49L1096.18,63.49c22.09,5.92,35.2,28.63,29.28,50.72l-84.94,317.02
	c-5.92,22.09-28.62,35.2-50.71,29.28l0,0c-22.09-5.92-35.2-28.63-29.28-50.72l84.94-317.02
	C1051.39,70.68,1074.09,57.57,1096.18,63.49z"/>
</svg>
