<?xml version="1.0" standalone="no"?>
<!DOCTYPE svg PUBLIC "-//W3C//DTD SVG 20010904//EN"
 "http://www.w3.org/TR/2001/REC-SVG-20010904/DTD/svg10.dtd">
<svg version="1.0" xmlns="http://www.w3.org/2000/svg"
 width="1600.000000pt" height="1600.000000pt" viewBox="0 0 1600.000000 1600.000000"
 preserveAspectRatio="xMidYMid meet">
<metadata>
Created by potrace 1.14, written by Peter Selinger 2001-2017
</metadata>
<g transform="translate(0.000000,1600.000000) scale(0.100000,-0.100000)"
fill="#000000" stroke="none">
<path d="M3125 11640 c-3 -5 -24 -8 -46 -7 -24 2 -48 -3 -61 -12 -12 -8 -18
-9 -14 -3 10 16 -6 15 -23 0 -11 -11 -12 -10 -6 2 7 12 6 13 -6 3 -8 -7 -29
-10 -48 -7 -18 3 -31 2 -28 -3 3 -5 -10 -7 -30 -5 -23 3 -38 0 -44 -9 -7 -12
-9 -11 -9 1 -1 11 -4 10 -15 -4 -8 -11 -15 -15 -15 -10 0 5 -9 10 -20 10 -11
0 -20 -4 -20 -8 0 -5 -9 -4 -20 2 -11 6 -19 7 -18 1 2 -5 1 -10 -2 -10 -46
-14 -80 -17 -90 -7 -8 8 -9 6 -4 -9 7 -18 6 -19 -11 -5 -10 8 -16 10 -12 3 5
-7 1 -12 -10 -12 -10 0 -29 -2 -43 -4 -14 -3 -29 -5 -33 -6 -5 0 -6 -5 -2 -10
3 -6 -4 -8 -17 -6 -28 6 -60 -3 -53 -15 3 -4 -4 -6 -15 -3 -11 3 -26 0 -34 -6
-11 -9 -15 -9 -19 1 -4 9 -6 7 -6 -4 -1 -11 -8 -15 -26 -14 -13 2 -22 0 -20
-4 3 -5 -2 -11 -11 -14 -9 -4 -13 -2 -8 5 4 6 -4 5 -17 -2 -13 -7 -30 -12 -38
-10 -8 1 -10 -2 -5 -10 5 -9 2 -10 -9 -6 -12 4 -17 1 -17 -11 0 -13 -2 -14 -9
-4 -10 17 -23 15 -34 -4 -5 -9 -16 -13 -28 -9 -14 5 -17 2 -13 -8 4 -11 -1
-13 -22 -9 -19 3 -25 1 -20 -7 6 -9 -11 -14 -41 -10 -3 0 -10 -6 -15 -15 -5
-9 -18 -16 -28 -16 -10 0 -22 -5 -26 -11 -3 -6 -15 -9 -25 -6 -10 3 -17 0 -16
-7 1 -6 -6 -10 -15 -10 -10 1 -15 -3 -11 -9 4 -6 0 -8 -9 -5 -8 4 -20 -3 -27
-14 -11 -17 -15 -18 -22 -7 -7 11 -9 10 -9 -4 0 -10 -4 -15 -10 -12 -5 3 -10
1 -10 -4 0 -6 -9 -11 -20 -11 -11 0 -20 -4 -20 -9 0 -5 -9 -11 -21 -14 -12 -3
-18 -10 -14 -16 3 -6 0 -9 -8 -5 -8 3 -25 -5 -37 -18 -13 -13 -20 -17 -16 -11
5 9 2 11 -8 7 -9 -3 -13 -11 -9 -17 4 -6 0 -8 -10 -4 -9 3 -21 -1 -29 -11 -12
-16 -11 -16 7 -2 18 14 19 14 7 -2 -7 -9 -22 -15 -33 -13 -11 2 -17 0 -14 -4
7 -12 -43 -43 -57 -35 -7 4 -8 3 -4 -4 4 -7 -3 -17 -18 -24 -14 -6 -26 -15
-26 -20 0 -5 -5 -6 -12 -2 -8 5 -9 2 -5 -10 4 -9 3 -15 -2 -11 -13 7 -42 -5
-36 -16 7 -10 -30 -31 -40 -21 -3 4 -5 2 -3 -3 1 -6 -1 -12 -7 -14 -5 -2 -20
-14 -31 -27 -12 -12 -25 -20 -28 -17 -3 4 -6 -1 -6 -11 0 -9 -4 -15 -8 -12 -5
3 -16 -6 -26 -20 -11 -13 -25 -24 -33 -24 -8 0 -12 -4 -8 -9 3 -5 -4 -12 -15
-16 -11 -4 -18 -11 -15 -16 4 -5 0 -9 -7 -9 -8 0 -20 -9 -28 -20 -8 -11 -21
-20 -30 -20 -13 0 -13 -1 0 -10 13 -8 12 -10 -2 -10 -10 0 -18 -7 -18 -16 0
-8 -4 -12 -10 -9 -18 11 -32 -5 -19 -21 7 -9 8 -14 3 -13 -21 4 -35 -2 -29
-11 3 -5 2 -10 -2 -10 -5 0 -18 -7 -29 -16 -10 -8 -12 -12 -4 -8 13 7 13 5 1
-9 -7 -9 -17 -15 -21 -12 -5 3 -11 1 -15 -5 -3 -5 0 -10 7 -10 7 -1 2 -7 -12
-15 -14 -8 -20 -15 -15 -15 6 0 -1 -7 -15 -15 -14 -7 -24 -16 -22 -19 6 -14 1
-27 -8 -21 -5 3 -10 -1 -10 -10 0 -10 -5 -13 -12 -9 -8 5 -9 2 -4 -12 4 -10 4
-15 0 -12 -9 10 -36 -20 -29 -32 3 -5 -1 -10 -10 -10 -9 0 -13 -4 -10 -10 3
-5 -1 -10 -9 -10 -15 0 -21 -12 -17 -33 1 -4 -6 -10 -14 -13 -8 -3 -12 -11 -8
-17 4 -6 0 -8 -9 -5 -11 5 -14 0 -12 -18 1 -13 -2 -22 -7 -18 -5 3 -9 0 -9 -6
0 -6 -6 -8 -12 -4 -7 4 -10 3 -5 -1 4 -5 -1 -17 -10 -28 -10 -11 -12 -17 -6
-13 9 5 11 2 7 -9 -4 -9 -9 -13 -12 -10 -3 2 -12 -4 -20 -16 -8 -11 -12 -23
-9 -26 3 -3 -6 -16 -19 -28 -14 -13 -25 -27 -25 -32 1 -17 -11 -43 -20 -43 -5
0 -9 -7 -9 -15 0 -8 -5 -15 -11 -15 -5 0 -7 -5 -3 -12 4 -6 -1 -17 -11 -24
-10 -8 -16 -17 -12 -20 4 -4 -1 -13 -11 -21 -11 -10 -12 -12 -2 -8 10 4 9 2
-2 -8 -10 -8 -15 -17 -11 -20 3 -4 1 -7 -6 -7 -8 0 -11 -7 -7 -15 3 -8 1 -15
-5 -15 -6 0 -8 -7 -5 -16 3 -8 2 -12 -4 -9 -6 3 -11 1 -11 -4 -1 -6 -2 -16 -3
-21 0 -6 -6 -14 -11 -18 -6 -4 -10 -14 -10 -22 0 -8 -8 -20 -20 -27 -11 -7
-15 -12 -8 -13 16 0 12 -40 -4 -40 -7 0 -10 -7 -7 -15 4 -8 1 -15 -5 -15 -6 0
-10 -3 -10 -7 3 -19 -2 -34 -9 -29 -5 3 -9 -1 -9 -9 0 -8 4 -15 9 -15 4 0 -2
-10 -13 -21 -17 -17 -19 -23 -8 -30 12 -7 12 -9 0 -9 -8 0 -11 -7 -8 -20 3
-10 -1 -24 -9 -31 -8 -6 -12 -22 -10 -35 3 -14 1 -22 -5 -19 -5 4 -6 11 -3 17
4 7 2 8 -5 4 -7 -4 -9 -16 -6 -27 4 -11 0 -30 -8 -42 -8 -12 -13 -30 -11 -39
1 -10 -2 -18 -8 -18 -6 0 -5 -6 2 -15 11 -13 8 -19 -11 -17 -3 1 -6 -5 -6 -13
0 -8 5 -11 11 -8 6 3 5 0 -1 -8 -7 -7 -13 -23 -13 -36 0 -13 -4 -23 -8 -23
-13 0 -12 -40 1 -40 7 0 4 -5 -5 -11 -14 -8 -15 -15 -8 -35 6 -14 6 -23 2 -20
-4 2 -13 -4 -20 -14 -10 -16 -9 -18 6 -14 15 5 15 4 2 -8 -10 -8 -14 -27 -12
-51 2 -21 -3 -46 -10 -55 -8 -9 -8 -13 -1 -9 7 5 9 0 6 -13 -3 -11 -10 -20
-15 -20 -5 0 -6 -5 -3 -10 4 -6 12 -8 18 -4 7 3 4 -1 -5 -9 -14 -11 -15 -16
-5 -27 7 -7 7 -10 1 -7 -7 4 -10 -14 -9 -51 2 -69 -3 -94 -19 -86 -6 3 -3 -1
6 -8 15 -13 15 -15 0 -26 -15 -10 -15 -11 3 -5 20 6 20 6 1 -16 -20 -22 -20
-22 0 -15 17 7 17 6 5 -9 -7 -9 -10 -17 -6 -17 4 0 2 -7 -5 -15 -11 -13 -10
-14 4 -9 12 5 15 2 10 -10 -3 -9 -10 -13 -15 -10 -5 3 -6 -2 -3 -10 3 -9 11
-13 18 -9 6 3 2 -4 -8 -16 -19 -21 -19 -21 -1 -15 14 6 16 4 9 -7 -14 -24 -16
-51 -2 -43 7 4 4 -3 -6 -15 -20 -22 -20 -22 0 -15 16 7 17 5 7 -7 -10 -12 -10
-18 0 -29 10 -10 8 -12 -7 -6 -19 7 -19 6 -2 -13 18 -20 19 -50 1 -63 -6 -5
-6 -8 2 -8 6 0 10 -13 9 -30 -1 -16 2 -30 6 -30 5 0 4 -10 -3 -21 -9 -17 -8
-20 3 -13 11 6 11 5 -1 -9 -12 -15 -11 -17 5 -18 18 0 18 -1 -1 -9 -18 -8 -18
-9 -2 -9 13 -1 17 -7 15 -23 -2 -13 -7 -26 -13 -30 -6 -5 -5 -8 3 -8 7 0 12
-15 12 -40 0 -22 4 -40 9 -40 5 0 9 -18 9 -41 1 -22 6 -47 13 -55 6 -7 9 -20
6 -29 -4 -8 1 -19 11 -24 16 -10 16 -10 -1 -11 -17 0 -17 -1 0 -27 10 -15 12
-24 6 -20 -7 5 -13 4 -13 -2 0 -6 6 -11 14 -11 10 0 13 -9 9 -31 -4 -27 -2
-31 14 -25 16 5 16 5 -1 -9 -18 -14 -18 -15 -2 -15 9 0 15 -4 11 -10 -3 -5 1
-24 8 -42 8 -18 12 -38 10 -45 -2 -6 1 -14 6 -18 6 -3 11 -15 11 -26 0 -10 4
-19 10 -19 5 0 9 -3 9 -7 -4 -23 2 -43 11 -38 14 9 12 -8 -2 -24 -10 -11 -10
-13 0 -7 8 5 12 0 12 -13 0 -12 5 -21 11 -21 5 0 7 -5 4 -11 -4 -5 1 -20 12
-31 12 -14 13 -18 3 -13 -12 7 -13 6 -3 -6 6 -8 11 -18 11 -22 0 -5 4 -12 8
-15 4 -4 4 -1 -1 7 -5 9 -4 12 3 7 6 -3 9 -16 7 -27 -2 -12 2 -22 11 -26 13
-5 13 -7 2 -14 -10 -7 -10 -9 0 -9 6 0 12 -7 12 -15 0 -8 5 -15 10 -15 6 0 10
-5 10 -11 0 -5 -6 -7 -12 -3 -7 4 -5 -2 5 -13 9 -11 14 -24 10 -28 -5 -5 0 -4
9 3 14 12 16 10 11 -9 -4 -15 -3 -20 5 -15 8 5 10 2 6 -8 -3 -9 -1 -16 5 -16
6 0 8 -7 5 -15 -4 -8 1 -17 10 -21 9 -3 13 -10 10 -15 -3 -5 0 -9 6 -9 6 0 9
-4 6 -9 -3 -5 4 -21 17 -37 12 -16 22 -31 22 -34 0 -3 3 -4 7 -3 5 2 7 0 6 -5
-4 -13 13 -52 23 -52 5 0 9 -5 9 -11 0 -6 7 -17 15 -26 8 -8 13 -19 10 -24 -4
-5 -1 -9 5 -9 7 0 9 -7 6 -16 -5 -14 -4 -15 8 -5 12 10 14 9 12 -5 -2 -10 8
-28 21 -40 12 -12 23 -29 23 -38 0 -10 5 -14 10 -11 6 3 10 0 10 -8 0 -8 7
-18 16 -21 9 -4 14 -9 11 -12 -9 -9 17 -33 28 -26 6 3 4 -2 -4 -12 -12 -15
-12 -17 0 -14 8 2 13 -3 11 -10 -1 -8 2 -11 8 -7 5 3 10 1 10 -5 0 -6 6 -8 12
-4 7 4 10 4 6 -1 -10 -11 11 -47 23 -40 5 4 8 1 7 -7 -2 -7 3 -12 10 -10 8 1
11 -2 7 -7 -7 -12 29 -51 48 -51 9 0 9 -2 1 -8 -9 -5 -8 -11 2 -20 8 -7 14
-10 14 -7 0 4 7 0 15 -9 8 -8 15 -17 15 -21 0 -11 68 -74 74 -68 3 4 6 1 6 -6
0 -16 108 -118 121 -114 5 2 5 -5 2 -14 -4 -9 -2 -14 3 -10 5 3 21 -4 34 -15
14 -11 19 -16 11 -12 -9 5 -12 3 -7 -4 4 -7 15 -12 25 -12 10 0 25 -8 32 -17
13 -17 13 -17 -6 -3 -19 14 -19 14 -6 -2 7 -10 22 -18 33 -18 10 0 16 -4 13
-10 -3 -6 1 -10 10 -10 9 0 13 -4 10 -10 -3 -5 1 -10 10 -10 9 0 13 -4 10 -10
-3 -6 1 -7 9 -4 10 4 16 1 16 -7 0 -7 3 -10 6 -6 8 7 34 -17 34 -32 0 -5 9 -8
20 -6 12 2 20 -2 20 -10 0 -7 9 -17 20 -20 11 -3 20 -11 20 -16 0 -6 5 -7 10
-4 5 3 10 1 10 -5 0 -7 6 -10 14 -7 8 3 20 -2 28 -11 12 -16 11 -16 -7 -2 -19
14 -19 14 -6 -2 7 -10 22 -18 32 -18 10 0 32 -13 50 -30 18 -16 36 -27 41 -24
4 3 11 -2 14 -11 6 -13 8 -14 15 -3 5 8 9 9 9 2 0 -7 9 -14 21 -17 12 -3 18
-10 14 -16 -3 -7 0 -8 9 -5 10 4 16 1 16 -7 0 -11 3 -11 10 1 8 13 10 12 10
-2 0 -10 3 -17 8 -17 19 3 33 -2 27 -11 -3 -6 1 -7 10 -4 10 4 27 -3 42 -17
14 -13 23 -18 19 -12 -5 9 -2 11 8 7 8 -3 17 -12 20 -20 3 -8 12 -11 22 -7 10
4 22 -1 30 -11 7 -10 17 -15 23 -12 5 3 16 -1 25 -9 8 -9 17 -15 18 -15 2 1
16 -3 31 -9 15 -6 33 -10 40 -8 7 1 11 -3 10 -10 -1 -6 5 -10 15 -8 9 1 30 -5
46 -14 20 -11 30 -13 33 -4 2 7 14 1 30 -14 18 -19 27 -23 33 -13 6 9 9 9 15
0 4 -6 13 -9 21 -6 8 3 17 -1 20 -9 5 -11 11 -12 25 -4 15 7 19 6 19 -6 0 -8
7 -15 16 -15 9 0 13 5 9 13 -4 6 -1 5 7 -4 7 -8 25 -15 41 -14 19 1 27 -3 27
-14 0 -13 2 -13 9 -3 7 11 9 10 15 -3 3 -10 11 -13 18 -8 20 12 36 12 41 0 2
-7 20 -11 38 -11 19 1 40 -3 47 -9 8 -6 12 -6 12 3 0 9 8 7 26 -5 15 -10 23
-12 19 -4 -6 9 -3 10 11 4 10 -4 29 -8 42 -8 12 1 22 -4 22 -9 0 -6 6 -6 14 1
10 9 16 9 21 1 5 -8 11 -7 23 2 9 8 13 8 9 2 -4 -7 0 -14 8 -18 8 -3 15 -1 15
5 0 6 6 6 18 1 9 -5 31 -9 47 -8 17 1 42 -2 58 -6 15 -3 27 -3 27 2 0 4 8 7
18 5 9 -2 17 -4 17 -5 0 -7 36 -6 40 1 3 4 16 4 30 -1 16 -6 27 -6 31 1 3 6
11 6 17 1 14 -10 27 -10 45 1 7 5 12 4 12 -3 0 -7 6 -8 18 -2 9 5 26 6 37 2
11 -4 26 -3 33 3 10 8 16 7 22 -2 6 -11 9 -11 13 0 4 10 6 10 6 2 1 -9 8 -10
24 -5 12 5 34 7 50 6 17 -2 25 1 21 8 -4 7 0 7 13 0 14 -8 27 -7 46 3 16 8 27
10 27 4 0 -6 6 -7 13 -2 6 4 19 8 28 8 9 0 23 6 32 13 10 9 17 10 22 2 4 -6 1
-9 -6 -8 -6 2 -14 -3 -16 -10 -4 -12 -1 -12 18 -1 25 14 45 20 69 21 8 0 21 6
29 12 11 8 13 8 8 0 -4 -8 2 -11 17 -10 13 0 22 4 20 7 -6 10 22 19 46 14 11
-2 20 0 20 5 0 4 10 6 22 2 12 -3 19 -1 15 4 -3 6 3 11 14 11 12 1 17 -3 13
-10 -4 -7 3 -2 15 11 18 18 26 20 43 11 15 -8 19 -8 14 0 -5 7 6 11 31 11 28
0 34 3 23 10 -11 7 -5 10 23 10 20 0 37 4 37 8 0 8 15 12 53 13 10 0 20 6 23
14 4 8 15 12 31 9 15 -3 22 -1 18 6 -3 5 -3 10 2 11 4 0 19 3 33 5 14 3 33 5
42 6 9 1 14 6 12 10 -5 7 10 12 29 9 4 0 7 4 7 10 0 6 7 8 15 5 9 -3 18 1 21
9 4 8 10 12 15 9 5 -3 9 0 9 7 0 8 5 7 17 -2 11 -10 14 -10 9 -1 -4 7 -2 12 4
12 6 0 9 4 6 8 -3 5 1 9 9 9 8 0 15 -5 15 -11 0 -6 4 -4 9 4 6 8 7 19 3 25 -3
5 2 4 11 -4 11 -9 17 -10 17 -2 0 6 9 11 20 11 11 0 20 5 20 11 0 5 5 7 10 4
6 -3 10 0 10 7 0 8 12 15 28 16 15 1 32 9 38 17 6 8 14 12 17 8 4 -3 7 -1 7 6
0 8 6 11 16 7 8 -3 13 -2 11 2 -3 4 1 13 9 20 11 10 14 10 14 0 0 -10 2 -10 9
0 4 8 10 12 12 11 2 -2 15 4 29 14 13 9 20 17 15 17 -5 0 1 7 13 16 13 9 30
13 38 10 8 -3 12 -2 9 4 -3 5 3 14 14 19 26 14 31 14 25 -3 -3 -8 0 -17 6 -21
7 -4 8 -11 1 -18 -14 -18 -14 -29 1 -38 7 -5 8 -9 2 -9 -9 0 -11 -31 -4 -50 1
-3 1 -9 0 -15 -6 -29 -5 -67 2 -71 5 -3 5 -11 1 -17 -12 -19 -11 -57 1 -57 7
0 8 -3 1 -8 -13 -9 -15 -82 -3 -82 5 0 6 -6 1 -12 -10 -17 -11 -49 -2 -69 5
-9 5 -19 2 -23 -11 -10 -9 -56 2 -56 7 0 7 -3 0 -8 -14 -9 -13 -75 0 -84 7 -5
7 -8 0 -8 -6 0 -10 -13 -10 -30 -1 -16 3 -30 8 -30 4 0 5 -6 0 -12 -10 -17
-11 -49 -2 -69 5 -9 5 -19 2 -23 -11 -10 -9 -56 2 -56 7 0 7 -3 0 -8 -14 -9
-13 -75 0 -84 7 -5 7 -8 0 -8 -6 0 -10 -14 -10 -30 -1 -17 3 -30 8 -30 4 0 5
-6 0 -12 -10 -17 -11 -49 -2 -69 5 -9 5 -19 2 -23 -11 -10 -9 -56 2 -56 7 0 7
-3 0 -8 -14 -9 -13 -75 0 -84 7 -5 7 -8 0 -8 -12 0 -12 -70 0 -90 6 -9 4 -11
-6 -5 -12 8 -12 6 0 -8 7 -9 9 -17 4 -17 -14 0 -9 -35 8 -56 12 -16 12 -17 -1
-9 -12 7 -13 6 -3 -7 7 -8 10 -18 6 -21 -3 -4 -2 -7 4 -7 6 0 10 -8 10 -17 0
-43 3 -49 13 -33 8 11 9 7 4 -14 -5 -20 -4 -27 4 -22 8 5 10 2 6 -8 -3 -9 -1
-16 5 -16 13 0 10 -22 -4 -33 -6 -4 -1 -7 10 -5 13 2 20 -3 20 -14 0 -9 4 -20
9 -25 5 -5 6 -2 1 6 -5 9 -4 12 2 8 6 -4 16 -20 23 -37 7 -16 17 -30 22 -30 5
0 6 -4 3 -10 -3 -5 2 -10 12 -10 15 0 16 -2 3 -10 -13 -9 -13 -10 0 -10 17 0
56 -40 52 -53 -1 -5 2 -6 8 -2 5 3 10 1 10 -5 0 -7 7 -9 17 -6 10 4 14 4 11 0
-10 -9 17 -34 37 -34 9 0 13 -4 10 -10 -5 -9 16 -15 38 -11 5 1 6 -3 2 -9 -3
-5 1 -10 10 -10 10 0 13 -5 9 -12 -4 -7 -3 -8 5 -4 6 4 24 0 39 -10 15 -10 38
-18 52 -19 33 -1 52 -13 44 -27 -4 -7 -2 -8 5 -4 6 4 9 12 6 17 -4 5 -2 9 4 9
5 0 13 -5 17 -11 3 -6 17 -8 30 -5 15 4 24 2 24 -5 0 -8 4 -8 15 1 11 9 15 9
15 1 0 -8 5 -9 19 -1 14 7 22 7 26 0 5 -8 11 -7 21 1 11 9 14 9 14 0 0 -8 5
-9 18 -2 13 7 22 7 29 0 8 -8 13 -7 18 2 5 8 4 10 -3 5 -7 -4 -12 -2 -12 3 0
13 10 14 29 2 9 -6 22 -4 36 5 13 8 30 11 40 8 12 -5 16 -4 12 3 -4 6 0 13 8
17 8 3 15 0 15 -7 0 -8 3 -8 9 2 5 7 14 11 20 7 6 -4 9 -1 5 7 -4 10 2 14 18
13 13 0 23 5 24 12 3 23 4 24 18 13 10 -9 15 -8 20 4 3 8 12 15 21 15 8 0 14
5 13 11 -2 6 4 13 13 14 22 4 59 37 59 53 0 7 3 11 8 9 9 -6 33 19 25 27 -4 3
1 6 10 6 11 0 17 8 17 21 0 14 5 19 14 16 10 -4 13 0 11 14 -3 15 0 19 10 15
9 -3 12 0 8 10 -3 7 1 14 8 14 7 0 9 3 6 7 -4 3 0 11 8 17 9 6 16 25 18 43 1
17 7 31 12 30 6 -1 9 6 7 16 -2 9 2 17 7 17 5 0 10 8 10 18 1 30 7 57 16 71 6
10 4 12 -6 6 -11 -7 -12 -6 -3 6 6 8 10 29 8 47 -1 18 1 30 6 27 5 -3 12 0 16
6 4 8 3 9 -4 5 -7 -4 -12 -4 -13 1 -5 51 -4 73 5 73 6 0 4 5 -4 10 -12 8 -12
10 -1 10 11 0 11 3 0 17 -10 11 -10 14 -1 9 15 -9 15 -1 1 26 -9 17 -9 20 3
15 8 -3 15 1 15 9 0 7 -4 11 -9 8 -12 -7 -10 14 4 39 9 19 9 20 -3 10 -11 -9
-14 -7 -14 13 0 13 3 24 8 24 4 0 7 5 7 11 0 5 -3 8 -7 6 -5 -3 -8 12 -8 34 0
21 3 39 6 39 12 0 18 29 8 35 -5 4 -8 1 -7 -6 2 -6 -4 -14 -12 -16 -13 -4 -13
-3 0 6 8 6 11 11 6 11 -5 0 -3 6 3 14 9 11 9 15 -1 19 -8 3 -5 6 7 7 l20 1
-20 9 c-11 5 -14 9 -7 9 7 1 10 6 6 13 -4 6 -8 26 -9 45 -1 26 2 32 13 28 13
-5 13 -3 1 11 -15 18 -21 66 -7 58 11 -7 10 3 -3 28 -9 17 -9 20 3 15 8 -3 15
1 15 9 0 7 -4 11 -9 8 -12 -7 -10 14 4 39 9 19 9 20 -3 10 -11 -9 -14 -7 -14
13 0 13 3 24 8 24 4 0 7 5 7 11 0 5 -3 8 -7 6 -5 -3 -8 12 -8 34 0 21 3 39 6
39 12 0 18 29 8 35 -5 4 -8 1 -7 -6 2 -6 -4 -14 -12 -16 -13 -4 -13 -3 0 6 8
6 11 11 6 11 -5 0 -3 7 4 15 10 12 10 15 -1 16 -8 0 -5 4 6 9 l20 9 -20 0
c-13 1 -16 4 -8 9 7 4 9 13 5 19 -8 13 -7 236 1 257 3 8 1 17 -6 20 -7 2 -3 5
8 5 15 1 17 3 6 10 -13 9 -20 135 -7 148 3 4 6 1 6 -6 0 -7 5 -9 10 -6 6 3 10
1 10 -4 0 -6 5 -11 11 -11 7 0 20 -10 30 -22 11 -11 19 -16 19 -9 0 7 5 9 10
6 6 -4 7 -11 4 -17 -4 -6 -2 -8 4 -4 6 3 18 -1 26 -10 9 -8 16 -13 16 -9 0 3
9 1 20 -5 11 -6 17 -16 14 -22 -4 -7 -3 -8 4 -4 7 4 12 2 12 -3 0 -6 5 -11 11
-11 5 0 7 6 4 13 -4 6 0 4 8 -5 8 -10 21 -18 30 -18 9 0 19 -5 23 -12 5 -7 3
-8 -6 -3 -8 5 -11 4 -7 -3 4 -5 17 -8 29 -4 13 3 19 1 15 -5 -4 -6 0 -14 9
-17 10 -4 13 -2 9 7 -4 6 0 4 8 -5 8 -10 17 -15 20 -11 4 3 7 1 7 -5 0 -6 7
-9 15 -6 9 4 18 -1 21 -11 4 -9 13 -14 21 -11 7 3 16 -1 19 -9 3 -8 12 -11 21
-8 12 5 14 3 8 -7 -6 -10 -3 -12 13 -8 13 4 23 0 26 -9 4 -8 13 -13 21 -9 8 3
21 -2 30 -10 8 -9 15 -12 16 -7 0 4 4 -1 9 -12 8 -19 9 -19 9 -1 1 19 1 19 14
1 8 -10 19 -15 25 -11 7 4 12 2 12 -4 0 -6 5 -8 10 -5 6 3 10 1 10 -5 0 -6 5
-8 10 -5 6 3 10 0 10 -7 0 -9 3 -9 10 2 9 13 10 13 10 0 0 -13 1 -13 10 0 8
13 10 12 10 -4 0 -13 5 -17 20 -13 11 3 20 0 20 -6 0 -7 5 -5 10 3 8 13 10 13
10 -1 0 -9 9 -19 20 -22 11 -3 20 0 20 6 0 6 9 1 20 -11 23 -25 39 -30 20 -7
-10 12 -2 11 34 -5 26 -11 56 -20 67 -20 10 0 19 -5 19 -11 0 -8 5 -8 15 1 12
10 16 9 22 -6 6 -16 7 -16 14 2 6 16 8 16 8 2 1 -12 6 -15 17 -11 9 3 20 0 25
-8 7 -12 10 -12 18 -1 7 11 9 11 13 0 4 -9 20 -13 42 -13 20 1 39 -2 42 -7 3
-4 10 -8 15 -8 6 0 8 4 5 9 -8 13 13 8 51 -11 18 -9 35 -13 37 -9 6 9 43 8 52
-2 12 -12 26 -8 18 6 -6 9 -4 9 7 1 8 -6 21 -11 29 -11 8 -1 24 -4 34 -9 15
-5 17 -4 11 6 -6 9 -4 11 5 5 20 -13 63 -15 76 -4 8 7 15 6 20 -2 5 -8 3 -9
-6 -4 -9 6 -11 4 -5 -4 4 -8 11 -9 17 -3 5 5 27 6 49 2 22 -4 42 -3 45 1 3 5
11 6 17 2 18 -11 36 -12 42 -2 3 4 16 4 29 -1 15 -5 27 -5 35 3 8 8 11 8 11
-2 0 -7 5 -9 10 -6 22 14 60 15 60 3 0 -9 3 -8 10 2 5 8 10 11 10 6 0 -5 8 -2
17 5 9 8 14 9 10 3 -4 -7 0 -14 8 -17 10 -4 12 -1 8 11 -5 13 -4 15 8 6 19
-14 45 -11 41 6 -2 10 0 11 11 2 9 -8 17 -8 24 -1 8 8 13 8 17 0 5 -8 13 -8
27 -1 10 6 19 8 19 4 0 -3 6 -2 13 4 10 9 19 7 35 -4 17 -12 21 -12 16 -1 -3
10 3 13 25 12 17 -1 28 1 26 5 -2 3 13 6 32 6 21 0 39 6 41 13 3 8 8 7 19 -6
8 -10 12 -13 9 -6 -4 6 -2 14 4 18 5 3 10 0 10 -7 0 -9 3 -9 10 2 5 8 10 11
10 5 0 -5 5 -3 10 5 9 13 10 13 10 0 0 -12 2 -12 9 -2 5 8 25 16 46 18 20 2
44 9 53 16 14 11 15 10 9 -7 -6 -17 -5 -18 6 -5 13 16 22 19 62 22 13 1 21 6
18 11 -3 5 5 7 18 5 13 -1 31 4 39 12 8 9 11 10 6 3 -6 -10 -4 -12 8 -7 9 3
16 9 16 13 0 4 13 7 30 6 23 -1 27 1 19 11 -8 10 -3 11 21 7 24 -3 30 -1 25 8
-6 9 -2 11 13 7 13 -4 20 -2 16 4 -3 5 2 8 12 6 11 -2 18 2 17 8 -1 6 9 10 22
8 14 -1 25 2 25 7 0 6 5 7 10 4 6 -3 10 -1 10 5 0 6 4 9 9 5 5 -3 15 1 23 8 7
7 23 12 35 11 12 -1 20 3 17 7 -3 5 0 9 6 9 6 0 9 4 6 9 -4 5 3 7 14 4 14 -4
20 -1 18 8 -2 9 8 13 33 13 27 0 36 3 32 13 -3 9 3 13 21 13 15 0 30 8 36 19
6 12 18 18 30 16 11 -2 19 -1 19 3 -3 20 2 25 11 12 8 -13 10 -12 10 3 0 11 4
15 12 11 6 -4 17 1 25 11 7 11 13 15 13 9 0 -5 10 2 21 16 16 19 19 21 15 6
-5 -15 -1 -14 20 7 15 15 33 27 41 27 7 0 18 10 23 23 5 12 9 16 9 9 1 -7 6
-10 11 -7 6 4 8 10 5 15 -3 5 4 7 15 5 11 -2 19 -1 16 3 -5 9 20 32 28 25 3
-3 8 2 12 11 3 9 15 16 26 16 13 0 18 5 15 14 -4 10 0 14 13 11 12 -2 17 1 14
10 -3 7 0 16 7 21 8 5 10 3 4 -6 -5 -8 -3 -11 6 -8 8 3 13 11 11 17 -2 10 10
15 29 13 4 -1 15 9 25 21 19 21 19 21 -1 7 -18 -14 -19 -14 -7 2 8 9 19 15 27
12 7 -3 16 0 21 7 5 8 3 10 -6 4 -9 -5 -11 -4 -6 3 4 7 16 12 26 12 10 0 22 4
25 10 4 6 -1 7 -12 4 -15 -6 -15 -4 2 9 11 9 26 17 34 17 8 0 11 6 7 16 -3 8
-2 13 3 10 12 -8 74 51 67 63 -4 6 2 8 15 6 12 -2 19 -2 16 2 -4 3 5 16 18 29
14 13 25 28 25 34 0 5 6 9 13 8 6 -2 11 3 9 11 -2 9 3 11 13 7 9 -3 14 -2 11
3 -3 5 1 12 10 15 10 4 14 12 10 22 -6 15 -4 15 11 3 9 -8 14 -9 10 -3 -3 6 2
20 13 31 10 12 16 24 12 28 -4 4 -2 5 3 3 6 -1 21 8 34 21 19 19 21 25 10 33
-11 8 -11 9 1 5 17 -5 43 17 32 27 -3 4 1 4 11 0 9 -3 17 -10 17 -16 0 -5 5
-6 12 -2 6 4 8 3 4 -4 -3 -6 3 -17 14 -25 11 -7 17 -17 13 -20 -3 -4 -1 -7 5
-7 7 0 12 -7 12 -16 0 -8 5 -12 10 -9 6 3 10 -1 10 -10 0 -11 5 -15 16 -11 8
3 13 2 10 -3 -8 -12 33 -63 45 -56 8 6 13 -8 10 -27 0 -5 6 -8 15 -8 10 0 14
-6 11 -14 -4 -11 -1 -13 11 -9 9 3 14 2 10 -2 -5 -5 2 -13 15 -20 12 -6 21
-17 19 -23 -1 -7 5 -12 14 -12 8 0 12 -4 9 -10 -6 -9 8 -14 28 -11 4 0 7 -5 7
-12 0 -16 36 -47 54 -47 10 0 12 -7 8 -22 -5 -20 -3 -21 10 -10 12 10 18 10
28 -2 6 -9 9 -20 5 -26 -4 -6 -3 -10 2 -9 22 4 33 -3 33 -18 0 -15 2 -16 10
-3 8 13 10 12 10 -3 0 -10 5 -15 10 -12 5 3 10 1 10 -4 0 -6 7 -11 16 -11 10
0 14 -6 11 -14 -4 -10 0 -12 14 -9 13 4 19 0 19 -13 0 -9 3 -15 6 -11 4 3 12
1 20 -6 33 -30 42 -35 48 -30 3 4 6 -2 6 -12 0 -10 3 -15 7 -12 3 4 12 -1 20
-11 8 -9 11 -10 7 -2 -5 8 4 5 20 -8 16 -12 33 -19 39 -15 5 3 7 2 4 -3 -3 -6
-2 -16 4 -24 6 -11 9 -11 9 -2 0 10 3 10 14 0 8 -7 12 -16 9 -20 -2 -4 3 -5
11 -2 9 3 16 1 16 -6 0 -6 4 -8 10 -5 6 3 10 1 10 -5 0 -6 5 -8 10 -5 6 3 10
-2 10 -12 0 -15 2 -16 10 -3 6 10 10 11 10 3 0 -7 7 -13 16 -13 8 0 13 -4 10
-9 -3 -5 1 -12 10 -15 23 -9 26 -8 19 7 -4 6 2 3 12 -8 10 -11 25 -21 33 -23
8 -2 18 -9 22 -15 4 -6 10 -8 14 -4 4 4 13 -1 21 -11 10 -11 12 -12 8 -2 -4 8
2 5 12 -8 15 -18 21 -20 31 -10 11 11 13 10 10 -2 -2 -8 5 -14 15 -15 10 0 21
-6 26 -13 5 -8 11 -13 15 -13 3 1 16 1 29 1 18 0 19 -2 7 -11 -12 -9 -11 -10
8 -6 12 3 22 2 22 -3 0 -4 7 -11 16 -14 10 -4 13 -2 9 7 -4 6 0 4 9 -7 9 -11
22 -16 31 -12 9 3 13 2 10 -4 -3 -6 5 -10 19 -10 14 0 26 -6 26 -12 0 -9 4 -8
10 2 8 12 10 12 10 -5 0 -15 3 -16 9 -7 6 11 11 10 25 -3 9 -9 23 -14 31 -11
8 3 19 -3 24 -12 7 -11 11 -12 11 -4 0 7 5 10 10 7 6 -4 8 -10 5 -14 -2 -5 7
-6 20 -3 15 2 25 0 25 -7 0 -13 22 -10 32 4 5 6 8 3 8 -6 0 -11 9 -15 30 -13
16 1 27 -2 24 -7 -4 -8 33 -14 59 -10 4 0 7 -4 7 -10 0 -8 5 -7 15 1 9 7 18
10 22 6 3 -3 0 -6 -8 -6 -11 0 -12 -2 -1 -9 8 -4 26 -7 42 -5 20 2 30 -1 32
-13 3 -15 5 -15 21 1 14 15 17 15 17 2 0 -9 7 -13 18 -11 10 2 25 -1 32 -5 8
-5 22 -4 33 2 14 7 18 7 12 -1 -5 -8 5 -12 32 -11 54 0 73 -2 73 -11 0 -10 34
-6 42 6 5 6 8 5 8 -3 0 -7 4 -11 9 -7 6 3 15 -3 21 -12 11 -17 11 -17 6 0 -3
9 -1 17 4 17 6 0 10 -6 10 -12 0 -9 4 -8 10 2 7 11 10 11 10 2 0 -7 4 -10 10
-7 5 3 10 1 10 -6 0 -6 9 -1 21 12 11 13 18 19 15 14 -2 -6 -1 -17 5 -25 5 -8
9 -10 9 -4 0 11 57 10 68 -1 3 -3 11 0 19 6 9 9 13 8 13 0 0 -8 6 -9 18 -3 9
5 26 6 37 2 11 -4 26 -3 33 2 6 6 12 7 12 2 0 -10 57 -11 67 -1 3 4 12 2 19
-4 8 -7 14 -6 20 2 5 8 3 9 -6 4 -9 -5 -11 -4 -6 4 6 9 11 9 22 0 8 -6 14 -8
14 -5 0 4 9 2 19 -4 11 -6 22 -6 25 -1 8 13 56 20 56 8 0 -6 6 -3 13 7 11 15
18 16 33 8 14 -7 25 -7 38 0 14 8 17 8 11 -2 -6 -9 -3 -9 12 -1 11 6 23 7 27
4 3 -3 6 -1 6 5 0 7 5 12 11 12 5 0 8 -4 5 -8 -8 -13 39 -8 56 5 11 10 17 10
28 0 10 -9 11 -9 6 1 -4 6 -3 12 1 12 5 0 15 -6 22 -12 8 -7 11 -8 9 -3 -3 6
0 15 7 22 11 10 15 10 19 0 3 -9 7 -8 15 3 8 11 11 12 11 2 0 -8 5 -10 13 -5
14 9 19 10 48 12 13 1 18 5 13 14 -5 7 0 6 11 -3 12 -9 16 -10 11 -2 -6 9 -1
11 18 8 14 -3 26 -1 26 4 0 5 7 7 15 4 8 -4 15 -2 15 4 0 5 10 9 23 9 41 1 48
3 41 14 -4 7 1 7 16 -1 15 -8 20 -8 16 -1 -4 6 0 12 8 12 20 2 26 4 49 13 9 5
26 6 36 3 15 -3 18 -1 14 11 -5 11 -2 14 10 9 8 -3 18 -1 21 6 3 8 5 7 5 -2 1
-11 5 -10 17 5 8 10 13 12 9 4 -4 -8 0 -7 9 4 9 11 23 17 35 13 12 -3 19 0 18
7 -1 6 6 10 16 8 9 -2 17 2 17 9 0 6 7 9 15 6 8 -4 17 -2 20 4 4 5 11 7 16 4
5 -4 9 -1 9 6 0 7 3 9 7 5 4 -3 13 4 21 16 7 13 11 15 8 6 -4 -15 -2 -16 19
-6 14 6 25 15 25 20 0 4 3 7 8 7 19 -3 33 2 28 10 -7 11 13 9 31 -2 8 -5 11
-1 8 11 -2 14 2 19 18 18 13 -1 21 4 19 12 -1 8 2 11 9 6 6 -3 14 -2 18 3 9
15 72 44 65 30 -4 -7 3 -2 15 11 15 15 30 21 44 18 12 -3 16 -3 10 0 -7 3 -13
10 -13 15 0 6 4 7 10 4 5 -3 22 7 37 22 14 15 23 23 19 16 -4 -7 5 -6 24 3 16
9 30 20 30 26 0 6 3 9 6 5 4 -3 14 2 23 11 9 10 14 13 11 7 -3 -6 6 1 19 15
13 14 20 19 17 13 -5 -9 -2 -11 8 -7 9 3 14 10 11 14 -3 4 2 13 10 20 13 11
15 10 10 -6 -5 -13 -2 -12 7 4 8 12 18 19 23 15 4 -4 5 0 2 10 -4 10 -3 16 2
12 5 -3 16 2 25 11 9 8 21 12 27 8 8 -4 9 -3 5 5 -4 6 0 14 11 18 28 10 53 35
46 46 -3 6 -1 7 6 3 6 -4 14 0 17 9 5 12 9 13 20 4 12 -10 13 -9 8 5 -3 9 -1
16 6 16 6 0 8 4 5 10 -4 6 1 7 12 3 10 -3 15 -3 11 1 -8 10 14 36 25 29 4 -2
7 3 7 12 0 9 3 14 8 12 4 -2 21 10 37 26 17 16 24 26 16 22 -10 -6 -12 -4 -7
4 6 9 11 9 22 0 12 -10 13 -9 8 5 -4 10 0 18 10 22 9 3 13 11 9 17 -3 6 -1 7
6 3 6 -4 14 0 17 8 3 9 11 13 17 9 6 -3 7 -1 3 6 -4 6 0 14 8 17 9 3 13 10 10
15 -3 5 0 9 5 9 6 0 10 6 9 13 -2 6 2 11 9 10 8 -2 10 4 6 14 -4 11 -3 14 5 9
7 -4 14 3 18 19 3 14 11 25 18 25 6 0 4 5 -4 10 -13 8 -13 10 1 10 10 0 16 7
15 18 0 9 5 16 12 14 10 -2 11 2 3 15 -7 13 -5 23 7 37 13 15 13 17 2 11 -13
-8 -13 -7 -1 8 8 10 14 36 15 60 1 23 5 48 9 55 5 7 3 12 -5 12 -7 0 -5 5 6
11 15 9 16 13 5 20 -10 6 -10 9 -2 9 12 0 11 7 -3 48 -10 27 -11 52 -2 46 4
-3 8 0 8 5 0 6 -5 11 -12 11 -6 0 -9 3 -5 6 3 3 2 17 -3 30 -7 17 -6 24 3 24
8 1 6 5 -4 13 -20 16 -34 51 -16 42 6 -4 4 0 -5 8 -13 10 -15 16 -6 25 9 9 8
12 -5 12 -10 0 -14 5 -11 15 4 8 -1 17 -9 21 -9 3 -14 14 -12 24 2 12 -7 28
-25 42 -16 12 -26 26 -24 30 3 4 -3 8 -13 9 -10 0 -13 3 -6 5 14 6 -15 44 -33
44 -7 0 -15 12 -18 26 -6 22 -9 24 -24 13 -9 -7 -14 -9 -10 -5 4 5 0 15 -10
23 -9 8 -11 11 -3 7 9 -5 12 -3 7 5 -4 6 -11 9 -16 6 -5 -3 -11 -1 -15 5 -4 6
-12 7 -18 3 -8 -4 -7 -1 1 9 11 14 10 16 -13 14 -14 -2 -28 1 -32 7 -4 6 -1 7
8 2 10 -6 11 -5 4 3 -6 6 -25 12 -42 14 -28 2 -30 4 -21 23 8 16 8 18 -2 8
-14 -13 -43 -6 -34 9 4 6 -3 5 -15 -1 -15 -8 -21 -9 -21 -1 0 6 -5 8 -10 5 -6
-3 -10 -1 -10 6 0 8 -5 7 -17 -2 -9 -8 -14 -9 -11 -4 4 6 3 17 -3 25 -7 12 -9
11 -10 -5 0 -11 -3 -14 -6 -7 -2 6 -9 10 -14 7 -5 -3 -18 -1 -29 5 -15 8 -20
8 -20 -2 0 -10 -3 -9 -9 1 -8 12 -12 12 -24 2 -11 -8 -16 -9 -19 -1 -2 8 -11
8 -31 1 -18 -7 -26 -7 -22 -1 7 12 -23 9 -44 -4 -8 -5 -16 -3 -22 5 -7 11 -9
11 -9 1 0 -7 -5 -10 -11 -7 -6 4 -17 -1 -25 -11 -13 -16 -15 -17 -10 -2 3 12
1 15 -10 11 -7 -3 -14 -9 -14 -15 0 -5 -6 -8 -12 -7 -25 3 -39 -1 -34 -9 3 -5
-8 -8 -25 -7 -16 1 -33 -3 -36 -8 -4 -6 -1 -7 7 -2 9 6 11 4 6 -4 -5 -7 -14
-10 -22 -7 -7 3 -20 -5 -29 -17 -8 -12 -15 -18 -15 -13 0 5 -9 1 -19 -8 -12
-11 -25 -15 -33 -10 -7 4 -10 4 -6 -1 4 -4 0 -14 -10 -22 -10 -9 -11 -12 -2
-7 9 4 12 3 7 -2 -5 -5 -13 -10 -18 -10 -5 -1 -14 -2 -20 -3 -5 0 -7 -6 -3
-13 5 -8 2 -9 -9 -5 -11 4 -17 1 -17 -9 0 -9 -5 -12 -12 -8 -8 5 -8 2 1 -10
12 -15 12 -17 0 -14 -8 2 -13 -3 -11 -11 3 -12 1 -12 -15 -1 -10 8 -15 11 -12
7 8 -10 -27 -49 -59 -66 -12 -7 -20 -16 -17 -20 3 -5 -2 -12 -11 -15 -10 -4
-13 -2 -8 6 4 7 3 8 -4 4 -7 -4 -12 -14 -12 -22 0 -8 -5 -12 -10 -9 -6 3 -13
-1 -16 -9 -3 -9 -9 -14 -13 -11 -4 2 -14 -5 -21 -16 -16 -21 -36 -27 -24 -6 4
7 3 9 -2 4 -5 -5 -9 -14 -9 -20 0 -7 -10 -12 -22 -11 -13 0 -19 -4 -16 -12 3
-9 -2 -12 -16 -9 -15 3 -18 0 -14 -12 4 -11 2 -14 -5 -9 -7 4 -12 2 -12 -6 0
-9 -3 -9 -10 2 -8 13 -10 12 -10 -3 0 -10 -4 -15 -10 -12 -5 3 -10 1 -10 -5 0
-7 -6 -10 -12 -8 -7 3 -19 -2 -27 -9 -7 -8 -20 -12 -29 -8 -12 4 -12 3 -3 -9
9 -11 6 -13 -18 -11 -23 2 -28 -1 -23 -13 4 -11 1 -14 -11 -9 -9 3 -17 2 -17
-3 0 -5 -7 -6 -17 -3 -9 4 -14 2 -10 -3 3 -6 -3 -11 -14 -11 -12 -1 -17 3 -13
9 4 7 2 8 -4 4 -7 -4 -12 -13 -12 -21 0 -8 -11 -12 -34 -11 -25 1 -32 -2 -28
-13 4 -10 -1 -13 -21 -9 -15 3 -27 1 -27 -4 0 -5 -4 -7 -9 -4 -5 4 -11 2 -13
-3 -1 -5 -23 -11 -46 -14 -24 -2 -47 -9 -52 -16 -6 -11 -9 -11 -13 0 -3 8 -6
9 -6 3 -1 -5 -15 -9 -31 -8 -25 2 -29 -1 -20 -11 9 -11 7 -12 -9 -8 -12 3 -18
10 -15 17 3 6 -2 2 -10 -8 -12 -15 -16 -16 -16 -5 0 9 -3 10 -8 3 -4 -6 -21
-10 -39 -9 -18 1 -30 -2 -27 -7 3 -4 1 -8 -5 -8 -5 0 -11 6 -14 13 -3 8 -10 6
-22 -8 -9 -11 -13 -14 -9 -6 6 11 3 13 -12 7 -31 -13 -64 -14 -71 -3 -4 6 -1
7 7 2 9 -5 11 -4 6 3 -5 8 -13 9 -26 2 -11 -6 -29 -15 -41 -21 -17 -8 -21 -7
-26 11 -4 14 -8 18 -13 10 -4 -6 -19 -13 -33 -14 -15 -2 -24 0 -22 5 3 4 1 10
-4 13 -5 3 -12 -1 -15 -9 -4 -12 -10 -13 -25 -6 -10 6 -21 7 -25 4 -3 -3 -6
-2 -6 4 0 5 -10 9 -22 8 -13 -1 -29 3 -37 9 -12 9 -13 8 -7 -3 6 -9 5 -12 -5
-9 -8 3 -13 12 -11 19 1 8 -4 6 -13 -5 -13 -17 -15 -17 -21 -3 -3 10 -10 17
-16 17 -5 0 -7 -4 -4 -8 3 -5 -1 -9 -9 -9 -8 0 -11 5 -8 10 4 6 0 8 -10 4 -9
-3 -18 -1 -21 6 -3 9 -5 9 -5 0 -1 -7 -8 -10 -17 -6 -12 4 -13 8 -3 13 6 5 -7
7 -30 6 -29 -2 -45 3 -51 13 -7 11 -9 12 -10 3 0 -7 -5 -10 -10 -7 -6 4 -8 10
-5 14 2 5 -7 6 -20 3 -15 -2 -25 0 -25 7 0 6 -10 11 -22 11 -32 0 -100 25 -91
33 3 4 -2 7 -13 7 -10 0 -28 7 -38 15 -10 8 -23 12 -27 9 -5 -3 -9 0 -9 6 0 6
-4 9 -9 6 -5 -3 -14 0 -20 8 -7 8 -23 17 -38 21 -14 3 -31 11 -39 18 -39 35
-44 38 -44 26 0 -7 -8 -3 -18 9 -10 11 -25 22 -32 24 -20 4 -39 22 -33 31 2 4
-1 6 -9 5 -7 -2 -12 3 -10 11 3 12 0 12 -12 1 -13 -10 -16 -10 -17 1 -1 8 -1
18 0 23 1 5 -6 3 -15 -5 -12 -9 -15 -9 -10 -1 4 7 2 12 -4 12 -6 0 -8 5 -4 12
5 7 2 10 -7 7 -14 -5 -91 65 -82 75 3 2 -4 2 -16 -1 -16 -4 -21 -1 -21 16 0
11 -6 20 -12 19 -7 -2 -12 2 -11 9 1 6 -5 17 -14 25 -14 11 -16 11 -8 -1 5
-10 4 -12 -3 -7 -7 4 -12 17 -12 29 0 14 -3 18 -8 10 -6 -9 -12 -7 -22 9 -8
12 -23 30 -32 40 -10 10 -18 22 -18 26 0 4 -9 14 -20 22 -11 8 -20 20 -20 27
0 6 -10 19 -22 27 -12 9 -17 16 -10 16 7 0 6 7 -5 18 -10 10 -25 17 -33 14
-13 -3 -13 -3 0 8 11 9 12 13 3 17 -7 2 -13 11 -13 19 0 8 -4 14 -10 14 -5 0
-7 7 -3 15 3 10 1 15 -8 13 -7 -2 -15 6 -17 16 -2 11 -10 26 -18 34 -8 7 -12
18 -9 23 4 5 1 9 -4 9 -6 0 -11 9 -11 20 0 11 -4 20 -10 20 -5 0 -10 7 -10 15
0 8 -6 15 -12 15 -9 0 -8 4 2 10 13 8 12 10 -3 10 -10 0 -16 4 -12 9 3 5 1 12
-5 16 -5 3 -10 17 -10 31 0 16 -4 23 -11 18 -7 -4 -6 2 2 17 11 21 10 23 -3
11 -13 -10 -15 -9 -13 13 2 14 -1 25 -6 25 -4 0 -6 7 -3 15 4 8 1 15 -5 15 -6
0 -8 7 -4 17 5 12 3 14 -8 8 -8 -4 -11 -5 -7 0 4 4 2 17 -4 29 -11 20 -10 20
8 6 18 -14 18 -14 1 6 -9 11 -14 24 -10 27 3 4 2 7 -3 7 -5 0 -11 14 -12 32
-2 18 -8 36 -15 40 -9 6 -8 8 3 8 9 0 11 3 5 8 -9 6 -15 49 -16 105 0 9 -4 15
-10 12 -13 -9 -11 9 3 23 7 7 8 12 2 12 -5 0 -9 17 -9 38 1 20 -3 45 -8 56 -6
13 -6 16 2 12 6 -4 11 -3 11 2 0 6 -8 13 -17 17 -16 6 -16 8 -3 18 19 15 18
80 -1 104 -13 16 -12 17 3 5 15 -12 16 -8 12 34 -3 26 -7 51 -10 55 -3 5 3 6
12 2 12 -4 15 -2 12 8 -3 8 -11 13 -18 11 -11 -3 -11 0 -1 12 7 8 9 21 5 28
-5 8 -1 8 11 -2 13 -10 16 -11 11 -2 -5 8 -9 26 -10 42 -2 25 0 27 13 17 12
-10 13 -9 3 9 -8 16 -8 24 1 33 9 9 8 14 -3 21 -10 7 -11 10 -2 10 6 0 12 7
12 16 0 9 5 12 12 8 7 -5 8 -3 2 7 -12 20 -14 39 -3 39 6 0 8 4 5 9 -3 5 2 12
11 15 12 5 13 10 5 18 -6 6 -7 17 -2 27 16 30 23 56 21 76 -2 17 0 18 9 5 9
-12 11 -10 7 12 -2 17 0 25 6 21 6 -4 8 0 4 10 -4 12 -1 17 11 18 11 0 13 2 4
6 -10 4 -9 9 5 20 10 8 13 12 7 9 -6 -3 -11 1 -11 8 0 9 7 12 16 8 14 -5 14
-4 1 13 -9 11 -10 16 -2 11 8 -5 12 0 12 14 0 12 5 18 10 15 6 -4 10 5 10 20
0 20 4 26 14 22 10 -4 13 -1 9 9 -3 8 0 21 7 29 6 8 8 20 4 26 -4 8 -3 9 4 5
7 -4 12 -2 12 4 0 6 5 8 12 4 6 -4 8 -3 4 4 -3 6 0 16 7 24 8 7 12 19 9 26 -2
6 3 12 11 12 8 0 20 14 26 31 6 17 15 28 21 24 6 -3 7 0 4 9 -4 9 1 18 10 22
9 3 13 10 10 16 -3 5 3 12 14 15 14 3 19 10 15 21 -4 10 -2 13 5 8 6 -3 13 -2
17 4 3 5 0 10 -7 10 -7 0 2 9 20 20 18 11 30 24 27 29 -3 5 4 12 15 16 11 4
18 11 15 16 -4 5 1 9 10 9 9 0 13 5 10 10 -3 6 -1 10 5 10 6 0 8 4 5 10 -3 6
1 7 9 4 11 -4 16 0 16 10 0 9 11 21 25 26 14 5 25 14 25 20 0 5 8 10 18 11 11
0 13 2 4 6 -10 4 -5 11 14 24 15 10 32 15 38 12 5 -4 7 1 3 11 -4 9 -3 15 2
12 5 -3 14 1 21 9 7 8 17 12 23 8 6 -4 8 0 4 10 -3 9 -3 16 1 16 21 -3 32 2
26 13 -4 7 -3 8 5 4 11 -7 65 27 56 36 -2 2 5 5 17 5 12 1 24 7 28 14 5 6 13
8 20 4 9 -5 11 -4 6 3 -4 7 8 18 33 28 23 9 39 19 37 23 -2 3 8 7 22 8 14 0
31 8 37 17 7 9 15 13 18 9 4 -3 7 0 7 8 0 12 2 12 9 0 7 -11 13 -9 30 8 12 12
26 19 31 16 6 -4 10 -1 10 5 0 6 5 8 10 5 6 -4 17 -1 25 5 8 6 19 9 25 5 5 -3
10 -1 10 5 0 6 5 8 10 5 5 -3 10 -2 10 3 0 6 13 9 29 8 16 -1 29 0 29 3 -2 19
4 22 19 10 14 -11 15 -11 9 -1 -6 10 -3 13 10 10 11 -2 25 3 32 12 12 13 13
13 8 -2 -4 -15 -2 -16 14 -6 10 7 17 15 15 18 -2 4 9 4 26 2 16 -2 37 2 46 9
9 8 14 9 10 3 -4 -8 2 -11 17 -10 18 1 22 4 14 14 -8 10 -6 11 8 6 10 -4 25
-12 32 -17 9 -7 11 -6 6 7 -5 14 -2 16 20 10 14 -3 34 -3 43 2 34 15 55 13 48
-5 -5 -12 -3 -13 6 -4 6 6 18 9 27 6 9 -4 13 -2 9 4 -3 5 0 10 8 10 8 0 12 -3
10 -7 -2 -3 7 -6 20 -6 16 0 21 4 17 15 -5 14 -4 14 10 1 9 -8 13 -19 10 -25
-3 -5 2 -4 11 4 9 7 17 10 17 5 0 -5 5 -2 10 6 6 10 10 11 10 3 0 -7 7 -13 16
-13 9 0 12 5 8 13 -6 9 -4 9 8 -1 9 -7 22 -12 30 -11 32 4 79 -2 74 -9 -3 -5
1 -9 9 -9 8 0 12 4 9 9 -3 4 2 8 11 8 12 0 15 -5 10 -17 -5 -14 -3 -15 6 -6 8
8 19 9 35 3 15 -6 24 -5 28 3 3 9 5 9 5 0 1 -7 8 -10 16 -7 10 4 15 0 15 -12
0 -13 3 -15 8 -7 4 7 13 9 21 4 7 -5 22 -6 32 -4 10 3 19 1 19 -4 0 -5 12 -10
27 -11 15 -1 32 -7 37 -12 6 -6 20 -10 33 -10 13 0 23 -5 23 -11 0 -8 6 -7 17
2 11 10 14 10 9 2 -4 -8 -2 -13 4 -13 6 0 8 -5 4 -11 -5 -8 -2 -9 11 -1 14 7
23 6 33 -5 8 -8 23 -12 34 -10 10 3 16 2 14 -1 -2 -4 2 -13 10 -20 11 -10 14
-10 14 0 0 10 3 9 9 -1 5 -8 20 -16 32 -18 13 -2 27 -10 32 -18 4 -8 15 -15
22 -15 8 0 15 -5 15 -11 0 -5 4 -8 9 -4 6 3 14 -3 20 -12 8 -13 10 -14 11 -4
0 11 4 10 13 -4 9 -12 19 -15 28 -10 8 5 11 5 7 0 -9 -10 17 -35 37 -35 9 0
13 -4 10 -10 -3 -5 2 -10 13 -10 10 0 29 -11 42 -25 12 -13 27 -22 33 -18 6 3
7 1 4 -4 -4 -6 0 -14 9 -17 8 -3 12 -11 8 -17 -4 -7 -3 -10 2 -6 10 6 60 -18
57 -27 -6 -14 -2 -27 6 -21 5 3 18 -6 29 -20 11 -14 25 -25 32 -25 6 0 8 -4 5
-10 -3 -5 1 -10 10 -10 9 0 13 -4 10 -10 -3 -5 1 -10 10 -10 9 0 14 -4 11 -8
-6 -10 30 -43 38 -35 3 4 6 -7 6 -23 0 -22 3 -26 10 -14 9 13 10 13 11 0 1 -8
1 -19 0 -24 -1 -5 5 -6 14 -2 9 3 13 2 10 -4 -3 -6 -1 -10 4 -10 6 0 11 -6 11
-14 0 -8 9 -18 20 -21 11 -3 20 -11 20 -17 0 -6 -7 -5 -17 3 -9 8 -7 0 7 -18
23 -32 39 -46 24 -21 -4 7 -3 8 4 4 6 -4 8 -14 5 -23 -5 -12 -3 -14 7 -8 10 6
12 4 7 -8 -4 -12 -1 -17 9 -17 11 0 15 -6 11 -19 -3 -14 -1 -18 9 -14 9 3 14
-2 14 -16 0 -12 4 -21 10 -21 5 0 7 -6 4 -14 -3 -8 3 -20 13 -27 10 -8 18 -21
18 -29 0 -8 7 -14 15 -12 12 3 12 1 3 -9 -10 -10 -9 -15 1 -23 7 -6 16 -27 20
-46 4 -25 3 -31 -4 -20 -9 13 -10 13 -10 0 0 -12 -2 -13 -9 -1 -6 8 -14 10
-22 5 -21 -13 -39 -13 -39 -1 0 7 -5 5 -10 -3 -9 -13 -10 -13 -10 0 0 13 -1
13 -10 0 -5 -8 -10 -10 -10 -4 0 7 -7 14 -14 17 -10 4 -13 1 -10 -8 4 -9 -1
-13 -15 -12 -12 1 -21 6 -21 12 0 5 -5 3 -10 -5 -9 -13 -10 -13 -10 0 0 13 -1
13 -10 0 -9 -13 -10 -13 -10 0 0 13 -1 13 -10 0 -9 -13 -10 -13 -10 0 0 13 -1
13 -10 0 -9 -13 -10 -13 -10 0 0 13 -1 13 -10 0 -5 -8 -10 -10 -10 -4 0 6 -7
11 -15 11 -8 0 -12 -4 -9 -9 3 -4 0 -8 -5 -8 -6 0 -11 6 -11 13 0 8 -4 7 -10
-3 -9 -13 -10 -13 -10 0 0 13 -1 13 -10 0 -9 -13 -10 -13 -10 0 0 13 -1 13
-10 0 -9 -13 -10 -13 -10 0 0 13 -1 13 -10 0 -6 -10 -10 -11 -10 -2 0 6 -5 12
-11 12 -5 0 -8 -4 -5 -8 3 -5 -1 -9 -9 -9 -8 0 -12 5 -8 10 3 5 -4 4 -15 -2
-27 -15 -30 -14 -35 7 -4 15 -5 14 -6 -2 -1 -20 -1 -20 -17 0 -8 10 -13 14
-10 7 4 -6 2 -14 -4 -18 -5 -3 -10 -1 -10 5 0 6 -5 8 -10 5 -6 -4 -8 -12 -4
-18 3 -7 -1 -4 -8 5 -13 15 -15 15 -26 0 -11 -16 -11 -16 -6 1 4 9 1 17 -5 17
-6 0 -11 -6 -11 -12 0 -9 -4 -8 -10 2 -9 13 -10 13 -10 0 0 -13 -1 -13 -10 0
-9 13 -10 13 -10 0 0 -13 -1 -13 -10 0 -9 13 -10 13 -10 0 0 -13 -1 -13 -10 0
-9 13 -10 13 -10 0 0 -13 -1 -13 -10 0 -6 10 -10 11 -10 3 0 -7 -5 -13 -11
-13 -6 0 -8 8 -5 18 6 16 5 16 -7 0 -12 -15 -14 -15 -25 0 -7 9 -10 12 -7 5 3
-6 1 -14 -5 -18 -5 -3 -10 -1 -10 5 0 6 -5 8 -10 5 -6 -4 -8 -12 -4 -18 3 -7
-1 -4 -8 5 -13 15 -15 15 -26 0 -11 -16 -11 -16 -6 1 4 9 1 17 -5 17 -6 0 -11
-6 -11 -12 0 -9 -4 -8 -10 2 -9 13 -10 13 -10 0 0 -13 -1 -13 -10 0 -9 13 -10
13 -10 0 0 -13 -1 -13 -10 0 -9 13 -10 13 -10 0 0 -13 -1 -13 -10 0 -9 13 -10
13 -10 0 0 -13 -1 -13 -10 0 -6 10 -10 11 -10 3 0 -7 -5 -13 -11 -13 -6 0 -8
8 -5 18 6 16 5 16 -7 0 -12 -15 -14 -15 -25 0 -8 11 -11 12 -9 3 1 -7 -4 -16
-12 -19 -10 -3 -11 0 -5 9 7 12 5 12 -9 0 -14 -11 -17 -11 -18 0 0 8 -4 5 -9
-6 -8 -18 -9 -19 -9 -1 -1 11 -6 16 -15 13 -7 -3 -19 0 -25 6 -9 9 -11 8 -6
-5 5 -13 2 -17 -14 -15 -12 1 -21 6 -21 12 0 5 -5 3 -10 -5 -9 -13 -10 -13
-10 0 0 13 -1 13 -10 0 -9 -13 -10 -13 -10 0 0 13 -1 13 -10 0 -9 -13 -10 -13
-10 0 0 13 -1 13 -10 0 -9 -13 -10 -13 -10 0 0 13 -1 13 -10 0 -5 -8 -10 -10
-10 -4 0 6 -7 11 -15 11 -8 0 -12 -4 -9 -9 3 -4 0 -8 -5 -8 -6 0 -11 6 -11 13
0 8 -4 7 -10 -3 -9 -13 -10 -13 -10 0 0 13 -1 13 -10 0 -9 -13 -10 -13 -10 0
0 13 -1 13 -10 0 -9 -13 -10 -13 -10 0 0 13 -1 13 -10 0 -6 -10 -10 -11 -10
-2 0 6 -5 12 -11 12 -5 0 -8 -4 -5 -8 3 -5 -1 -9 -9 -9 -8 0 -12 3 -10 7 2 3
-5 6 -15 6 -10 0 -17 -4 -14 -8 2 -4 -5 -6 -16 -5 -11 1 -20 8 -20 17 0 13 -2
13 -9 1 -5 -8 -17 -16 -25 -17 -9 -1 -14 2 -10 7 3 5 0 9 -5 9 -6 0 -11 -5
-11 -11 0 -6 -5 -7 -12 -2 -17 10 -78 11 -72 1 3 -4 0 -8 -5 -8 -6 0 -11 6
-11 13 0 9 -3 8 -9 -2 -5 -7 -14 -10 -20 -7 -6 4 -11 1 -11 -6 0 -9 -3 -9 -10
2 -7 10 -10 11 -10 2 0 -8 -9 -11 -26 -8 -23 4 -24 3 -12 -11 12 -15 11 -15
-9 -4 -14 7 -23 8 -23 2 0 -6 -7 -7 -17 -4 -12 5 -14 3 -8 -8 7 -11 5 -11 -10
1 -17 14 -18 13 -13 -2 5 -12 1 -16 -17 -13 -14 1 -22 -1 -20 -5 5 -8 -26 -25
-63 -35 -12 -4 -20 -11 -17 -16 4 -5 0 -9 -8 -9 -8 0 -18 -7 -21 -16 -3 -8
-10 -13 -16 -9 -5 3 -15 -3 -22 -15 -7 -11 -19 -20 -27 -20 -8 0 -12 -3 -8 -6
6 -6 -33 -49 -45 -49 -3 0 -10 -4 -15 -9 -5 -5 -3 -6 5 -2 6 4 12 3 12 -3 0
-5 -8 -15 -17 -20 -10 -6 -14 -11 -10 -11 5 0 1 -7 -7 -16 -9 -8 -13 -21 -9
-27 4 -7 0 -8 -13 -3 -10 4 -15 4 -12 0 4 -3 0 -20 -8 -36 -9 -16 -13 -36 -10
-44 3 -7 0 -13 -6 -11 -7 1 -12 -5 -13 -13 0 -8 -6 -25 -12 -36 -7 -12 -10
-24 -6 -27 3 -4 1 -12 -4 -19 -5 -7 -9 -38 -9 -70 1 -32 -3 -54 -8 -50 -6 3
-6 -3 -2 -14 5 -10 9 -47 9 -81 1 -35 4 -63 7 -63 3 0 7 -12 8 -27 1 -15 7
-30 13 -34 8 -5 8 -8 0 -10 -8 -3 -7 -11 4 -24 9 -11 13 -14 9 -6 -5 10 -3 12
5 7 9 -6 9 -11 1 -21 -9 -10 -7 -18 7 -33 10 -10 19 -25 21 -33 2 -8 8 -15 13
-17 5 -2 9 -10 9 -18 0 -8 4 -14 10 -14 5 0 7 -7 4 -15 -5 -13 5 -20 28 -16 4
0 5 -8 3 -19 -2 -13 2 -20 11 -20 8 0 12 -5 9 -10 -4 -6 -1 -9 7 -8 7 2 12 -4
12 -13 -1 -11 4 -15 18 -11 10 2 18 1 16 -4 -2 -5 1 -10 5 -11 4 -1 21 -16 38
-34 16 -17 29 -25 29 -19 0 7 9 3 20 -10 11 -13 26 -20 35 -17 8 4 14 1 12 -6
-1 -7 6 -11 15 -11 10 1 17 -1 16 -5 -2 -18 4 -22 17 -11 12 10 15 10 15 -3 0
-10 6 -13 20 -10 15 4 20 0 20 -13 0 -16 2 -17 10 -4 9 13 10 13 10 0 0 -13 1
-13 10 0 6 9 10 11 10 3 0 -7 7 -10 17 -6 10 4 14 2 9 -5 -3 -6 -1 -14 5 -18
7 -4 9 -3 6 3 -4 6 0 13 8 17 8 3 15 1 15 -3 0 -5 7 -12 16 -15 10 -4 13 -2 8
6 -5 8 -2 9 12 4 33 -14 78 -12 92 4 9 12 12 12 10 1 -2 -7 3 -16 10 -18 7 -3
12 3 12 13 0 16 1 16 15 -2 10 -13 14 -14 15 -5 0 11 3 11 15 1 10 -9 15 -9
15 -1 0 6 5 11 11 11 5 0 8 -3 6 -7 -3 -5 10 -8 29 -8 19 0 34 4 34 8 0 4 9 3
19 -3 25 -13 44 -13 36 0 -3 5 0 8 7 5 31 -11 88 -12 88 -1 0 6 5 4 10 -4 9
-13 10 -13 10 0 0 13 1 13 10 0 8 -12 10 -12 11 5 l0 20 9 -20 c6 -13 9 -15 9
-5 1 13 2 13 11 0 7 -11 10 -11 10 -2 0 9 5 10 19 2 16 -8 20 -6 24 8 4 14 5
14 6 -3 1 -17 3 -18 11 -5 9 13 10 13 10 0 0 -13 1 -13 10 0 6 10 10 11 10 3
0 -7 7 -13 15 -13 8 0 15 5 15 10 0 7 6 7 20 0 15 -8 20 -8 20 2 0 9 3 9 10
-2 9 -13 10 -13 10 0 0 13 1 13 10 0 8 -12 10 -12 11 5 l0 20 9 -20 c6 -13 9
-15 9 -5 1 13 2 13 11 0 9 -13 10 -13 10 0 1 11 4 10 15 -4 13 -17 15 -17 15
-3 0 9 6 14 13 12 22 -9 127 -10 127 -2 0 4 9 3 19 -3 25 -13 44 -13 36 0 -3
5 0 8 7 5 31 -11 88 -12 88 -1 0 6 5 4 10 -4 9 -13 10 -13 10 0 0 13 1 13 10
0 8 -12 10 -12 11 5 l0 20 9 -20 c6 -13 9 -15 9 -5 1 13 2 13 11 0 7 -11 10
-11 10 -2 0 9 5 10 19 2 16 -8 20 -6 24 8 4 14 5 14 6 -3 1 -17 3 -18 11 -5 9
13 10 13 10 0 0 -13 1 -13 10 0 6 10 10 11 10 3 0 -7 7 -13 15 -13 8 0 15 5
15 10 0 7 6 7 20 0 15 -8 20 -8 20 2 0 9 3 9 10 -2 9 -13 10 -13 10 0 0 13 1
13 10 0 8 -12 10 -12 11 5 l0 20 9 -20 c6 -13 9 -15 9 -5 1 13 2 13 11 0 9
-13 10 -13 10 0 1 11 4 10 15 -4 13 -17 15 -17 15 -3 0 9 6 14 13 12 22 -9
127 -10 127 -2 0 4 9 3 19 -3 25 -13 44 -13 36 0 -3 5 0 8 7 5 31 -11 88 -12
88 -1 0 6 5 4 10 -4 9 -13 10 -13 10 0 0 13 1 13 10 0 8 -12 10 -12 11 5 l0
20 9 -20 c6 -13 9 -15 9 -5 1 13 2 13 11 0 7 -11 10 -11 10 -2 0 9 5 10 19 2
16 -8 20 -6 24 8 4 14 5 14 6 -3 1 -17 3 -18 11 -5 9 13 10 13 10 0 0 -13 1
-13 10 0 6 10 10 11 10 3 0 -7 7 -13 15 -13 8 0 15 5 15 10 0 7 6 7 20 0 15
-8 20 -8 20 2 0 9 3 9 10 -2 9 -13 10 -13 10 0 0 13 1 13 10 0 8 -12 10 -12
11 5 l0 20 9 -20 c6 -13 9 -15 9 -5 1 13 2 13 11 0 9 -13 10 -13 10 0 1 11 4
10 15 -4 13 -17 15 -17 15 -3 0 9 6 14 13 12 22 -9 127 -10 127 -2 0 4 9 3 19
-3 25 -13 44 -13 36 0 -3 5 0 8 7 5 31 -11 88 -12 88 -1 0 6 5 4 10 -4 9 -13
10 -13 10 0 0 13 1 13 10 0 8 -12 10 -12 11 5 l0 20 9 -20 c6 -13 9 -15 9 -5
1 13 2 13 11 0 7 -11 10 -11 10 -2 0 9 5 10 19 2 16 -8 20 -6 24 8 4 14 5 14
6 -3 1 -17 3 -18 11 -5 9 13 10 13 10 0 0 -13 1 -13 10 0 6 10 10 11 10 3 0
-7 7 -13 15 -13 8 0 15 5 15 10 0 7 6 7 20 0 15 -8 20 -8 20 2 0 9 3 9 10 -2
9 -13 10 -13 10 0 0 13 1 13 10 0 8 -12 10 -12 11 5 l0 20 9 -20 c6 -13 9 -15
9 -5 1 13 2 13 11 0 9 -13 10 -13 10 0 1 11 4 10 15 -4 11 -14 15 -16 15 -5 0
10 11 14 40 13 22 -1 43 -4 47 -7 3 -4 12 1 20 11 8 9 12 12 9 6 -3 -7 3 -14
14 -17 11 -3 20 -1 20 4 0 4 10 5 22 0 16 -6 27 -4 36 8 7 9 11 11 8 4 -4 -6
-2 -14 4 -18 5 -3 10 -2 10 4 0 7 8 7 24 1 20 -7 26 -6 29 8 4 15 5 15 6 -1 1
-15 3 -16 15 -5 8 7 11 17 8 22 -3 5 4 16 14 24 18 14 18 14 1 8 -13 -4 -17
-2 -14 6 2 7 8 12 13 11 5 -1 8 15 8 35 -1 20 2 42 7 49 7 7 6 13 0 17 -11 7
-3 37 13 48 6 4 5 12 -3 22 -8 9 -9 16 -4 16 6 0 10 22 9 49 -1 27 2 47 5 45
4 -2 10 3 13 12 5 12 2 15 -11 10 -17 -6 -17 -5 0 8 13 10 15 15 5 19 -10 4
-11 7 0 18 15 16 16 33 0 23 -8 -5 -8 -3 -2 7 12 18 14 368 3 375 -5 3 -5 14
1 24 7 13 7 21 0 25 -5 3 -10 12 -10 18 0 9 3 8 8 -1 6 -8 9 -2 9 18 0 29 -1
30 -20 13 -20 -18 -20 -18 -4 6 13 19 14 29 5 45 -11 20 -10 20 8 6 18 -14 18
-14 2 5 -11 14 -14 25 -8 35 5 8 5 21 -1 32 -5 10 -6 18 -2 18 4 0 -2 6 -13
14 -18 13 -18 15 -2 21 15 6 16 9 3 22 -9 8 -13 18 -10 23 3 5 1 20 -5 35 -5
14 -6 24 -2 21 4 -2 8 4 8 14 0 10 -4 16 -8 14 -7 -5 -13 26 -9 49 0 4 -3 7
-9 7 -6 0 -6 9 0 26 9 23 8 25 -12 19 -13 -3 -18 -3 -12 2 15 11 11 53 -7 64
-11 7 -10 9 6 9 15 0 17 2 6 9 -8 5 -10 14 -6 21 5 9 4 11 -3 6 -13 -8 -14 -6
-16 41 -1 17 -7 37 -13 45 -20 26 -27 41 -15 34 7 -4 12 -2 12 3 0 6 -7 11
-15 11 -8 0 -15 5 -15 11 0 5 6 7 13 3 8 -6 8 -3 -2 9 -7 9 -11 23 -8 32 4 8
1 17 -5 21 -7 4 -8 3 -4 -4 4 -7 2 -12 -5 -12 -6 0 -9 8 -6 20 3 11 0 26 -7
33 -16 16 -29 50 -16 42 6 -3 7 1 4 9 -3 9 -10 13 -15 10 -5 -3 -6 2 -3 10 3
9 1 16 -4 16 -6 0 -9 9 -7 20 2 12 -2 20 -10 20 -8 0 -11 7 -8 20 4 15 0 20
-13 20 -16 0 -17 2 -4 10 9 6 10 10 3 10 -7 0 -10 9 -8 21 4 18 2 19 -12 7
-12 -9 -15 -10 -9 0 9 15 -2 54 -13 47 -5 -2 -7 6 -6 20 2 13 -3 29 -11 36 -7
6 -11 16 -7 22 3 6 1 7 -5 3 -7 -4 -12 -1 -12 8 0 9 -5 16 -11 16 -5 0 -8 4
-4 9 3 5 -2 17 -11 25 -8 9 -12 16 -8 16 4 0 0 8 -9 18 -10 10 -14 22 -10 25
3 4 -2 7 -11 7 -13 0 -17 6 -13 20 3 13 0 20 -8 20 -9 0 -12 8 -10 21 3 16 1
18 -8 10 -10 -7 -13 -4 -14 12 -1 12 -9 27 -17 33 -9 6 -13 14 -9 17 3 4 1 7
-5 7 -7 0 -12 7 -12 15 0 8 -4 15 -10 15 -5 0 -10 9 -10 21 0 15 -5 19 -16 15
-8 -3 -12 -2 -9 4 3 6 0 10 -7 10 -9 0 -9 3 2 10 13 8 13 10 -2 10 -9 0 -20 5
-24 12 -4 7 -3 8 4 4 8 -5 10 -2 6 8 -3 9 -9 15 -12 14 -20 -2 -25 3 -12 12
13 8 13 10 -1 10 -9 0 -23 8 -30 17 -10 11 -10 14 -1 9 6 -4 12 -2 12 3 0 6
-6 11 -13 11 -7 0 -19 9 -27 19 -7 11 -17 18 -22 15 -4 -3 -5 2 -2 10 3 9 1
16 -6 16 -6 0 -8 5 -5 10 3 6 -2 10 -11 10 -10 0 -15 3 -11 6 8 8 -16 33 -25
27 -5 -2 -8 3 -8 11 0 9 -4 16 -10 16 -5 0 -10 7 -10 16 0 8 -4 12 -10 9 -5
-3 -10 1 -10 9 0 14 -11 20 -31 18 -3 -1 -5 10 -3 24 2 20 0 23 -11 14 -10 -9
-15 -6 -20 10 -4 14 -12 19 -22 15 -14 -5 -14 -3 -2 12 7 10 10 15 6 12 -9 -8
-57 33 -57 48 0 6 -13 16 -30 23 -16 7 -27 16 -24 21 3 5 -2 9 -11 9 -9 0 -13
5 -10 10 3 6 -1 10 -9 10 -9 0 -16 7 -16 16 0 10 -5 14 -16 10 -8 -3 -12 -2
-9 4 6 9 -9 15 -29 11 -5 -1 -4 4 2 12 10 12 8 14 -10 13 -16 -1 -22 4 -20 16
2 15 -31 35 -51 30 -4 -1 -6 4 -5 10 2 7 -8 14 -21 16 -19 3 -21 6 -10 13 11
7 9 9 -8 9 -15 0 -23 6 -23 18 0 14 -2 15 -10 2 -8 -13 -10 -13 -10 1 0 9 -13
22 -30 29 -16 7 -30 16 -30 21 0 5 -7 9 -15 9 -8 0 -15 5 -15 10 0 6 -7 10
-15 10 -8 0 -15 8 -15 18 0 14 -2 15 -10 2 -8 -13 -10 -12 -10 4 0 15 -3 16
-14 7 -11 -9 -14 -8 -12 6 0 12 -5 17 -15 15 -9 -1 -19 4 -23 13 -3 8 -12 15
-21 15 -8 0 -15 5 -15 11 0 5 -4 7 -10 4 -5 -3 -10 -1 -10 6 0 6 -8 9 -20 6
-11 -3 -18 -1 -14 4 3 5 -2 9 -10 9 -9 0 -16 5 -16 10 0 6 -7 10 -15 10 -8 0
-15 5 -15 11 0 6 -7 9 -15 5 -9 -3 -15 0 -15 9 0 13 -33 21 -63 16 -5 -1 -6 3
-2 9 3 5 -1 10 -10 10 -10 0 -13 5 -9 12 5 8 2 9 -9 5 -9 -3 -19 -2 -22 4 -4
5 -14 8 -23 7 -11 -2 -16 3 -16 15 2 13 -1 15 -11 7 -9 -7 -16 -6 -25 5 -7 9
-20 13 -28 10 -8 -3 -23 2 -33 11 -10 9 -22 13 -28 10 -5 -4 -15 3 -21 14 -9
17 -14 19 -26 9 -10 -8 -14 -8 -14 0 0 6 -9 11 -20 11 -11 0 -20 4 -20 8 0 4
-10 8 -22 9 -11 1 -25 8 -29 15 -7 10 -9 10 -9 -2 -1 -13 -2 -13 -13 0 -7 9
-20 14 -29 12 -10 -2 -18 2 -18 8 0 7 -8 10 -20 7 -11 -3 -20 -1 -20 3 0 4 -8
6 -19 3 -10 -3 -22 0 -25 6 -4 6 -18 11 -32 11 -13 0 -24 4 -24 8 0 4 -17 9
-37 10 -21 2 -39 7 -41 12 -2 6 -8 10 -13 10 -6 0 -8 -4 -4 -9 3 -5 1 -13 -5
-16 -6 -4 -9 -1 -8 7 2 9 -10 14 -36 16 -26 2 -35 6 -26 12 9 5 5 8 -13 7 -14
-1 -23 -5 -20 -9 2 -5 0 -8 -5 -8 -6 0 -13 8 -16 17 -6 15 -8 15 -16 3 -6 -8
-10 -10 -10 -5 0 6 -15 10 -32 10 -21 -1 -36 5 -40 14 -5 13 -7 13 -7 -2 -1
-10 -6 -15 -11 -12 -6 4 -8 11 -5 16 4 5 1 9 -4 9 -6 0 -11 -7 -11 -16 0 -8
-4 -13 -10 -9 -5 3 -7 13 -4 23 4 10 3 13 -3 6 -10 -14 -123 -13 -123 1 0 5
-5 4 -12 -3 -14 -14 -32 -16 -24 -3 3 5 -3 11 -14 14 -11 3 -18 2 -15 -3 3 -4
-2 -11 -11 -14 -11 -4 -15 -2 -11 6 3 10 -9 13 -50 11 -30 -1 -60 -4 -67 -6
-8 -3 -24 2 -37 10 -12 9 -19 11 -15 5 5 -9 -2 -11 -28 -8 -23 3 -36 0 -36 -7
0 -6 -6 -3 -13 7 -12 16 -14 16 -26 2 -16 -19 -36 -22 -24 -3 4 6 -5 4 -20 -5
-14 -10 -30 -18 -34 -18 -4 0 -2 4 5 9 10 6 7 10 -12 13 -14 3 -23 2 -21 -2 3
-5 -2 -10 -10 -14 -8 -3 -15 -1 -15 5 0 6 -7 6 -19 -1 -26 -13 -34 -13 -25 3
6 9 5 9 -8 0 -8 -7 -29 -11 -47 -9 -24 3 -31 0 -27 -10 3 -8 0 -11 -9 -7 -8 3
-12 10 -9 17 3 6 -2 2 -10 -8 -9 -11 -16 -15 -16 -10 0 6 -7 11 -15 11 -8 0
-15 -4 -15 -9 0 -4 -14 -6 -31 -3 -19 4 -28 2 -24 -5 4 -6 -5 -7 -25 -4 -19 4
-30 2 -30 -5 0 -13 -22 -10 -32 4 -4 6 -8 2 -8 -8 0 -10 -5 -15 -10 -12 -6 4
-18 1 -27 -7 -12 -9 -15 -9 -9 0 4 6 2 12 -3 12 -6 0 -11 -5 -11 -11 0 -6 -9
-9 -20 -6 -11 3 -20 2 -20 -2 0 -4 -12 -7 -27 -7 -18 1 -27 -4 -25 -12 2 -10
-2 -10 -18 -2 -14 8 -20 8 -20 0 0 -6 -4 -9 -9 -5 -5 3 -13 0 -16 -6 -4 -5
-13 -8 -21 -5 -7 3 -16 1 -19 -5 -4 -5 -10 -7 -15 -4 -4 3 -13 -1 -18 -8 -6
-7 -30 -13 -52 -12 -35 1 -41 -2 -37 -16 3 -12 0 -16 -9 -12 -8 3 -11 10 -8
17 3 6 -1 3 -10 -8 -8 -10 -19 -15 -25 -11 -6 3 -11 1 -11 -6 0 -7 -3 -9 -7
-6 -3 4 -13 1 -21 -6 -13 -10 -15 -9 -8 3 4 8 0 6 -8 -4 -9 -11 -16 -16 -16
-12 0 5 -7 3 -15 -4 -8 -6 -19 -9 -25 -5 -5 3 -10 -2 -10 -12 0 -15 -2 -16
-10 -3 -6 9 -10 11 -10 3 0 -7 -6 -10 -13 -7 -8 3 -20 -2 -27 -10 -7 -9 -16
-13 -21 -10 -5 3 -9 0 -9 -6 0 -7 -7 -9 -16 -6 -10 4 -13 2 -8 -6 5 -7 2 -9
-9 -5 -9 3 -18 -1 -22 -11 -5 -14 -7 -14 -15 -2 -8 13 -10 12 -10 -2 0 -9 -5
-20 -12 -24 -7 -5 -8 -3 -3 5 4 8 -2 7 -17 -3 -14 -9 -28 -13 -33 -9 -4 5 -5
2 -1 -4 6 -12 -11 -18 -37 -14 -4 0 -6 -5 -5 -11 2 -8 -6 -13 -19 -12 -12 1
-21 -4 -20 -10 1 -6 -6 -10 -15 -8 -12 2 -18 -4 -19 -15 0 -10 -3 -13 -6 -6
-3 10 -7 10 -18 0 -7 -7 -10 -16 -7 -21 3 -5 -2 -7 -11 -3 -10 3 -17 2 -17 -4
0 -6 -5 -7 -10 -4 -5 3 -10 -1 -10 -9 0 -9 -6 -13 -14 -10 -8 3 -17 0 -21 -5
-3 -6 -11 -8 -17 -5 -7 4 -8 2 -4 -4 4 -7 2 -12 -4 -12 -6 0 -8 -5 -4 -12 5
-8 2 -8 -10 1 -15 12 -17 12 -14 0 2 -8 -3 -13 -9 -11 -7 1 -13 -2 -13 -8 0
-5 -7 -10 -16 -10 -8 0 -12 -4 -9 -10 3 -5 0 -10 -8 -10 -8 0 -22 -9 -32 -20
-10 -11 -24 -20 -31 -20 -7 0 -19 -9 -27 -20 -8 -11 -17 -17 -20 -13 -4 3 -7
-2 -7 -11 0 -12 -5 -16 -14 -13 -8 3 -17 -1 -20 -9 -3 -9 -11 -12 -17 -8 -8 4
-9 3 -5 -4 4 -7 2 -12 -4 -12 -6 0 -8 -5 -4 -12 5 -9 2 -8 -9 1 -15 12 -17 12
-11 -3 3 -9 2 -16 -4 -16 -5 0 -26 -16 -46 -36 -20 -20 -36 -30 -37 -23 0 8
-4 4 -9 -8 -5 -13 -16 -23 -25 -23 -8 0 -15 -7 -15 -16 0 -10 -5 -14 -16 -10
-8 3 -12 2 -9 -4 6 -9 -33 -52 -71 -78 -10 -7 -12 -10 -4 -7 8 4 3 -3 -13 -15
-15 -12 -24 -27 -21 -32 5 -7 2 -8 -5 -4 -8 5 -14 0 -18 -13 -5 -18 -8 -19
-21 -9 -14 12 -14 10 -3 -11 8 -13 9 -21 2 -17 -14 9 -49 -26 -43 -44 3 -7 0
-10 -7 -6 -6 4 -11 1 -11 -8 0 -14 -11 -20 -32 -17 -4 0 -4 -7 -1 -16 5 -12 3
-14 -7 -8 -10 6 -12 4 -7 -8 4 -11 1 -17 -9 -17 -8 0 -12 5 -9 10 3 6 1 10 -4
10 -6 0 -11 7 -11 16 0 9 -5 12 -12 8 -8 -5 -9 -2 -5 9 5 13 0 17 -21 17 -21
0 -24 2 -12 10 11 7 11 10 2 10 -7 0 -10 5 -7 10 5 8 -13 14 -36 12 -3 -1 -6
5 -6 13 0 7 7 11 16 8 9 -2 4 3 -11 12 -16 8 -28 20 -28 25 0 6 -7 10 -15 10
-9 0 -12 6 -8 15 3 9 2 15 -3 14 -23 -4 -34 3 -34 22 0 13 -4 18 -12 13 -8 -5
-9 -2 -4 11 6 16 4 16 -11 4 -11 -9 -14 -10 -9 -1 4 6 2 12 -4 12 -5 0 -18 13
-28 30 -15 24 -21 27 -32 17 -10 -9 -11 -9 -6 1 4 6 2 12 -3 12 -6 0 -10 3 -9
8 2 4 -1 8 -7 10 -5 2 -14 10 -18 18 -5 8 -14 11 -20 8 -7 -4 -9 -4 -5 1 8 8
-15 35 -30 35 -5 0 -23 16 -40 36 -20 23 -35 33 -44 28 -7 -4 -10 -4 -6 0 8
10 -14 36 -24 29 -5 -2 -8 3 -8 12 0 9 -5 13 -10 10 -6 -3 -13 1 -16 9 -3 9
-12 16 -20 16 -8 0 -14 5 -14 10 0 6 -9 10 -21 10 -11 0 -18 4 -15 8 3 5 -7
15 -22 23 -15 8 -32 21 -39 29 -7 8 -13 11 -13 6 0 -5 -9 1 -20 14 -11 13 -20
18 -20 11 0 -9 -4 -8 -14 1 -8 7 -12 16 -9 20 2 4 -3 5 -11 2 -11 -4 -16 0
-16 11 0 9 -4 14 -9 10 -5 -3 -17 2 -25 11 -9 9 -23 13 -31 10 -9 -3 -15 0
-15 9 0 14 -12 19 -32 16 -5 0 -8 4 -8 10 0 6 -7 8 -16 5 -10 -4 -18 0 -21 13
-3 13 -11 17 -26 14 -18 -4 -20 -3 -7 7 12 9 10 11 -12 7 -15 -2 -25 0 -22 4
7 12 -42 30 -63 23 -13 -4 -14 -3 -5 3 10 8 9 13 -4 24 -12 9 -15 10 -10 2 4
-7 3 -13 -1 -13 -5 0 -14 9 -21 21 -11 16 -16 18 -27 9 -12 -10 -16 -9 -21 3
-3 9 -14 14 -25 12 -10 -2 -19 0 -19 6 0 5 -7 9 -16 9 -9 0 -12 5 -8 13 6 9 5
9 -7 0 -13 -10 -20 -9 -37 8 -12 11 -22 15 -22 9 0 -6 -9 -2 -21 9 -12 11 -27
17 -35 14 -8 -3 -26 3 -40 12 -15 9 -23 11 -19 4 6 -9 4 -10 -6 -3 -8 5 -18 9
-24 9 -5 1 -9 6 -8 12 2 8 -8 11 -27 8 -18 -2 -36 3 -45 11 -9 10 -15 11 -15
4 0 -7 -6 -5 -16 4 -19 19 -28 21 -18 4 6 -10 4 -10 -8 0 -13 10 -17 10 -21 0
-4 -9 -6 -8 -6 4 -1 12 -9 15 -32 14 -17 -1 -38 4 -45 12 -11 11 -14 11 -14 0
0 -11 -2 -11 -9 0 -4 8 -20 12 -33 11 -14 -2 -32 2 -41 9 -10 9 -17 10 -22 2
-3 -5 -12 -10 -18 -10 -7 0 -6 4 3 10 10 6 5 9 -19 8 -18 -1 -37 5 -42 13 -7
12 -9 12 -9 0 0 -11 -3 -11 -17 0 -11 10 -14 10 -9 2 4 -7 2 -13 -3 -13 -6 0
-11 6 -11 13 0 8 -4 7 -10 -3 -5 -8 -10 -10 -10 -4 0 7 -7 15 -16 18 -10 4
-13 2 -8 -6 5 -7 3 -8 -7 -2 -8 4 -23 9 -34 9 -11 0 -26 4 -34 9 -9 6 -12 5
-8 -1 4 -6 -7 -10 -28 -9 -19 0 -35 5 -35 9 0 4 -9 3 -21 -3 -16 -9 -24 -8
-39 5 -14 12 -20 13 -26 4 -5 -8 -3 -10 6 -4 9 6 11 4 6 -4 -6 -9 -13 -8 -29
6 -11 10 -17 12 -13 6 5 -10 1 -11 -17 -4 -13 5 -30 5 -37 1 -9 -5 -20 -4 -27
2 -10 8 -13 7 -13 -3 0 -10 -3 -10 -12 -1 -14 14 -32 16 -24 3 3 -4 -12 -5
-34 -1 -29 5 -43 3 -55 -9 -12 -12 -15 -12 -13 -2 2 7 -5 15 -15 16 -9 2 -15
0 -12 -5 3 -4 -2 -10 -10 -14 -8 -3 -17 0 -21 6 -5 7 -2 8 7 3 8 -5 11 -4 6 0
-12 14 -48 14 -37 0 6 -7 2 -11 -13 -11 -12 0 -25 4 -29 10 -4 6 -12 5 -22 -3
-13 -11 -16 -11 -16 0 0 11 -2 11 -9 0 -8 -13 -12 -13 -27 0 -13 10 -16 10
-10 1 6 -10 0 -13 -25 -10 -21 2 -39 -3 -47 -12 -12 -13 -13 -13 -8 3 3 9 3
17 -1 17 -3 0 -12 -8 -20 -17 -8 -11 -11 -12 -7 -3 7 13 5 13 -9 1 -9 -7 -17
-10 -17 -6 0 4 -6 3 -13 -4 -10 -8 -17 -7 -25 1 -9 9 -12 9 -12 -3 0 -12 -2
-12 -10 1 -7 11 -10 11 -10 2 0 -7 -4 -10 -10 -7 -5 3 -10 -2 -11 -12 0 -14
-2 -15 -7 -3 -4 8 -13 16 -20 18 -8 1 -11 -2 -8 -7 3 -5 -3 -11 -14 -14 -11
-3 -23 0 -26 5 -4 6 -13 1 -21 -13 -8 -13 -12 -17 -10 -9 3 10 -2 16 -13 16
-10 0 -16 -4 -14 -8 3 -4 -6 -8 -20 -8 -14 0 -28 -4 -31 -10 -3 -5 -12 -10
-18 -10 -7 0 -6 4 3 10 10 7 11 10 2 10 -7 0 -15 -7 -19 -16 -5 -13 -7 -13
-14 -2 -6 9 -9 10 -9 1 0 -7 -7 -10 -16 -6 -9 3 -19 1 -23 -5 -3 -6 -18 -12
-31 -14 -14 -2 -31 -7 -38 -12 -7 -4 -16 -5 -19 -2 -3 3 -12 -2 -20 -12 -9
-10 -11 -11 -7 -2 7 13 5 13 -9 1 -9 -7 -17 -10 -17 -5 0 4 -7 -1 -16 -12 -15
-18 -15 -18 -10 0 6 16 4 17 -9 6 -8 -7 -13 -16 -10 -19 2 -4 -2 -8 -9 -8 -9
0 -12 7 -9 16 4 11 0 9 -10 -4 -9 -11 -17 -16 -17 -11 0 6 -7 1 -16 -10 -8
-10 -13 -13 -9 -6 3 6 2 12 -3 12 -6 0 -13 -8 -16 -17 -6 -15 -8 -15 -16 -3
-7 11 -10 12 -10 2 0 -7 -5 -10 -12 -6 -6 4 -8 3 -4 -4 3 -6 2 -13 -4 -17 -5
-3 -10 0 -10 7 0 9 -3 9 -10 -2 -5 -8 -10 -10 -10 -5 0 6 -5 2 -11 -7 -5 -10
-15 -18 -22 -18 -7 0 -6 4 3 10 8 5 12 10 7 10 -8 0 -48 -21 -57 -30 -14 -14
-52 -30 -59 -25 -5 3 -12 -2 -15 -11 -3 -8 -10 -12 -16 -9 -5 3 -10 1 -10 -4
0 -6 -6 -10 -12 -8 -7 1 -12 -3 -11 -9 1 -7 -6 -10 -17 -7 -11 3 -20 1 -20 -5
0 -5 -9 -12 -21 -15 -13 -4 -18 -10 -14 -17 6 -9 2 -9 -13 -1 -15 8 -23 8 -28
-1 -5 -7 -3 -8 6 -3 9 5 11 4 6 -3 -4 -7 -13 -12 -19 -12 -7 0 -23 -9 -37 -20
-14 -11 -33 -20 -44 -20 -12 0 -16 -5 -13 -14 4 -10 1 -13 -9 -9 -7 3 -14 0
-14 -6 0 -6 -7 -11 -15 -11 -8 0 -15 -5 -15 -12 0 -6 -3 -8 -7 -5 -3 4 -13 -2
-21 -14 -9 -13 -21 -19 -34 -16 -11 3 -17 3 -14 0 8 -9 -23 -35 -34 -28 -5 3
-10 -1 -10 -9 0 -9 -6 -16 -14 -16 -8 0 -22 -9 -30 -21 -8 -12 -19 -18 -25
-14 -6 3 -15 -5 -20 -18 -6 -14 -16 -29 -23 -33 -10 -6 -9 -3 1 12 8 10 -1 3
-20 -17 -19 -20 -40 -34 -48 -31 -8 3 -11 0 -7 -7 4 -6 2 -11 -4 -11 -6 0 -8
-5 -4 -12 4 -6 3 -8 -3 -5 -13 8 -55 -22 -48 -34 4 -5 2 -9 -4 -9 -12 0 -87
-73 -94 -92 -4 -10 -6 -10 -6 0 -1 10 -4 10 -16 -2 -18 -17 -20 -30 -3 -20 7
4 8 3 4 -5 -4 -6 -10 -10 -14 -8 -11 5 -71 -61 -64 -69 4 -4 -1 -4 -10 -1 -13
4 -15 2 -11 -10 4 -11 3 -14 -5 -9 -8 5 -17 -3 -25 -22 -6 -16 -18 -27 -24
-25 -7 3 -13 -2 -13 -11 0 -9 -5 -16 -11 -16 -6 0 -8 -7 -5 -17 4 -10 4 -14 0
-10 -4 4 -13 -1 -21 -11 -8 -9 -11 -11 -7 -3 5 9 3 12 -5 7 -6 -4 -9 -11 -6
-16 3 -5 -6 -20 -19 -33 -14 -14 -22 -28 -18 -33 4 -4 -1 -4 -10 -1 -13 4 -15
2 -11 -10 5 -12 3 -14 -8 -8 -11 7 -11 5 1 -10 10 -13 11 -16 2 -11 -9 5 -15
1 -19 -14 -4 -14 -11 -19 -22 -15 -8 3 -12 3 -8 -1 4 -4 -1 -17 -10 -28 -17
-20 -17 -20 2 -6 15 11 14 8 -4 -12 -13 -15 -27 -25 -32 -23 -4 3 -5 -5 -1
-17 3 -12 1 -19 -4 -15 -6 3 -16 -3 -23 -15 -10 -16 -10 -19 1 -13 7 4 1 -4
-14 -19 -29 -28 -37 -45 -15 -30 7 5 6 2 -3 -6 -8 -9 -16 -22 -18 -30 -4 -16
-23 -31 -32 -25 -3 2 -5 -11 -5 -30 1 -24 -2 -32 -12 -28 -8 3 -13 2 -12 -3 4
-22 -2 -35 -13 -28 -7 5 -9 1 -6 -12 3 -11 -1 -25 -9 -32 -7 -7 -10 -18 -7
-24 5 -7 2 -9 -8 -6 -10 4 -15 0 -15 -10 0 -35 -3 -43 -14 -37 -6 4 -10 1 -8
-6 3 -27 -1 -40 -12 -33 -8 4 -9 0 -4 -15 4 -14 2 -23 -9 -27 -8 -3 -12 -12
-9 -20 3 -8 0 -14 -7 -14 -7 0 -10 -7 -6 -15 3 -9 -1 -18 -9 -21 -7 -3 -11
-12 -8 -20 3 -8 0 -14 -7 -14 -6 0 -9 -4 -5 -10 3 -5 1 -17 -4 -27 -14 -27
-24 -57 -22 -67 1 -5 -6 -6 -15 -2 -14 6 -15 4 -4 -10 12 -13 11 -17 -1 -25
-8 -5 -10 -9 -5 -9 5 0 4 -6 -3 -13 -8 -10 -7 -17 2 -27 9 -10 9 -11 0 -6 -7
4 -13 2 -13 -4 0 -6 -4 -9 -8 -6 -5 3 -6 -8 -4 -25 3 -20 0 -29 -9 -29 -11 0
-11 -2 1 -10 13 -8 13 -10 -2 -10 -11 0 -15 -5 -12 -15 4 -8 0 -23 -7 -32 -12
-14 -12 -16 1 -8 13 8 13 7 1 -8 -8 -10 -11 -20 -8 -24 4 -3 -1 -12 -11 -20
-9 -8 -12 -12 -6 -9 8 4 11 -3 10 -18 -1 -18 -4 -22 -13 -14 -9 7 -10 2 -3
-21 5 -17 5 -29 0 -26 -4 3 -10 -2 -14 -10 -3 -8 -2 -15 2 -15 4 0 8 -9 8 -19
0 -11 -3 -19 -6 -19 -18 2 -23 -4 -10 -12 9 -6 11 -10 3 -10 -7 0 -10 -7 -7
-15 4 -8 1 -15 -6 -15 -10 0 -10 -3 0 -15 10 -12 10 -15 0 -15 -10 0 -10 -3
-1 -14 9 -11 9 -16 0 -22 -8 -5 -10 -3 -4 7 5 8 4 10 0 6 -12 -10 -16 -39 -5
-32 11 7 7 -22 -5 -32 -4 -4 -5 -2 0 6 6 10 4 12 -4 7 -8 -6 -9 -12 -2 -20 6
-7 9 -15 7 -17 -3 -2 -7 -26 -11 -53 -4 -35 -2 -52 7 -58 9 -5 8 -8 -5 -8 -14
0 -16 -4 -8 -18 7 -14 6 -25 -6 -42 -9 -13 -11 -20 -5 -16 7 4 10 -1 9 -14 -1
-11 -6 -20 -12 -20 -5 0 -3 -5 5 -10 13 -9 13 -11 0 -20 -12 -8 -12 -10 -1
-10 10 0 11 -3 2 -14 -8 -10 -9 -16 -1 -21 6 -3 7 -12 3 -18 -11 -18 -10 -111
2 -119 6 -5 6 -8 -2 -8 -7 0 -10 -10 -7 -26 3 -19 1 -24 -8 -19 -7 4 -4 -1 6
-9 11 -9 14 -16 7 -16 -7 0 -9 -4 -6 -10 3 -5 1 -10 -5 -10 -6 0 -8 -5 -3 -12
11 -18 13 -39 3 -33 -13 8 -21 -27 -9 -41 9 -11 9 -14 0 -14 -7 0 -9 -11 -6
-30 4 -23 2 -30 -10 -30 -9 0 -13 -5 -10 -10 4 -6 12 -7 18 -3 7 4 6 -1 -2
-10 -8 -10 -14 -27 -15 -40 -1 -13 -7 -21 -16 -19 -11 3 -10 -2 3 -16 14 -15
15 -22 6 -28 -8 -5 -10 -3 -4 6 5 9 4 11 -3 6 -7 -4 -12 -23 -12 -42 0 -26 -3
-33 -12 -28 -8 5 -7 0 2 -11 9 -11 10 -16 3 -11 -9 5 -13 0 -13 -14 0 -14 -4
-19 -12 -14 -10 5 -10 4 -1 -6 10 -10 8 -20 -9 -43 -14 -19 -16 -28 -7 -23 7
4 6 1 -3 -7 -10 -8 -15 -17 -12 -20 12 -11 -8 -46 -29 -53 -21 -7 -21 -7 -2
-15 11 -4 14 -8 8 -8 -7 -1 -13 -10 -13 -21 0 -11 -7 -20 -15 -20 -8 0 -12 -6
-9 -14 3 -8 0 -17 -5 -21 -6 -3 -8 -12 -4 -18 5 -9 2 -8 -8 0 -13 11 -15 9
-14 -10 1 -12 -9 -32 -22 -44 -14 -14 -19 -23 -11 -23 8 -1 5 -6 -6 -15 -11
-8 -16 -15 -11 -15 4 0 -2 -9 -14 -19 -14 -12 -20 -25 -15 -32 5 -9 2 -10 -10
-6 -12 5 -16 2 -14 -11 2 -9 -3 -16 -9 -15 -7 2 -12 0 -12 -5 3 -19 -2 -33
-11 -27 -5 3 -10 -3 -10 -15 0 -12 -3 -19 -7 -17 -5 2 -16 -4 -25 -15 -10 -10
-16 -18 -13 -18 3 0 -3 -8 -12 -18 -10 -11 -21 -17 -25 -15 -5 2 -8 -2 -8 -9
0 -17 -36 -48 -46 -40 -4 4 -4 -1 -1 -10 4 -11 2 -17 -6 -15 -7 1 -11 -3 -10
-10 2 -7 -4 -10 -13 -6 -8 3 -14 2 -12 -3 2 -5 -1 -10 -6 -11 -5 0 -13 -8 -18
-17 -5 -9 -17 -16 -26 -16 -15 0 -15 -2 -2 -10 13 -8 13 -10 -1 -10 -9 0 -24
-10 -33 -22 -9 -13 -14 -16 -10 -8 7 13 5 13 -9 1 -9 -7 -14 -17 -11 -22 3 -5
-3 -6 -12 -2 -12 4 -15 3 -10 -5 6 -11 -6 -16 -19 -9 -2 1 -12 -8 -21 -21 -9
-13 -22 -21 -30 -18 -8 3 -14 -1 -14 -10 0 -10 -6 -14 -15 -10 -8 3 -14 2 -12
-2 1 -4 -1 -8 -6 -9 -4 -2 -19 -14 -34 -27 -22 -21 -30 -23 -42 -13 -11 9 -13
9 -8 0 4 -7 -1 -14 -13 -18 -11 -3 -20 -11 -20 -17 0 -6 -7 -5 -17 3 -10 7
-15 10 -11 5 10 -12 -17 -36 -41 -36 -12 0 -21 -4 -21 -9 0 -6 -9 -8 -20 -6
-11 2 -18 0 -15 -6 4 -5 1 -10 -4 -10 -6 -1 -15 -3 -21 -4 -5 -1 -17 -3 -26
-4 -8 0 -13 -5 -10 -10 4 -5 -5 -8 -19 -6 -14 1 -25 -2 -25 -7 0 -6 -7 -7 -16
-4 -8 3 -12 2 -9 -4 3 -6 -5 -10 -19 -10 -13 0 -27 -6 -29 -12 -4 -10 -6 -10
-6 0 -1 6 -6 12 -12 12 -5 0 -7 -4 -4 -10 4 -6 -5 -10 -19 -10 -14 0 -26 -6
-26 -12 0 -10 -3 -9 -9 1 -6 9 -11 10 -15 2 -4 -6 -18 -11 -32 -11 -13 0 -24
-6 -24 -12 0 -8 -3 -9 -8 -3 -11 15 -32 17 -32 2 0 -8 -4 -7 -10 3 -7 11 -10
11 -10 2 0 -7 -4 -10 -10 -7 -5 3 -10 3 -10 -2 0 -4 -30 -8 -67 -8 -38 1 -74
-3 -80 -8 -9 -6 -13 -5 -13 3 0 10 -3 10 -15 0 -10 -8 -15 -9 -15 -2 0 6 -7 9
-15 6 -8 -4 -13 -9 -11 -13 2 -3 -11 -6 -30 -7 -19 0 -30 2 -24 6 7 5 4 9 -9
13 -12 3 -21 1 -21 -5 0 -5 -6 -6 -12 -1 -18 10 -58 12 -52 1 3 -4 0 -8 -5 -8
-6 0 -11 5 -11 10 0 6 -5 10 -11 10 -5 0 -7 -6 -3 -12 6 -10 4 -10 -7 -2 -8 6
-23 10 -34 8 -11 -2 -30 4 -42 11 -20 13 -23 13 -32 -3 -10 -16 -10 -16 -11 0
0 13 -7 16 -30 13 -18 -2 -30 1 -30 8 0 8 -3 8 -8 2 -11 -15 -32 -17 -29 -3 1
8 -10 13 -30 12 -18 0 -33 3 -33 7 0 5 -7 5 -17 2 -10 -4 -14 -2 -10 4 10 15
-13 21 -45 12 -21 -6 -26 -4 -21 7 4 10 -4 14 -31 14 -24 0 -36 5 -36 14 0 9
-7 12 -20 9 -12 -3 -20 0 -20 6 0 7 -4 9 -10 6 -5 -3 -10 -2 -10 4 0 6 -7 7
-17 4 -12 -5 -14 -3 -8 8 7 11 5 11 -10 -1 -10 -8 -16 -10 -13 -5 4 6 -2 16
-13 23 -11 7 -19 8 -19 2 0 -5 -4 -10 -10 -10 -5 0 -6 7 -3 17 4 10 2 14 -5 9
-6 -3 -15 1 -20 10 -5 9 -15 15 -23 12 -7 -2 -22 5 -32 16 -10 12 -15 15 -12
8 6 -11 3 -12 -14 -3 -11 7 -21 16 -21 22 0 6 -4 8 -9 5 -5 -3 -12 1 -15 10
-4 9 -13 14 -21 10 -9 -3 -15 0 -15 9 0 8 -7 15 -15 15 -8 0 -15 4 -15 8 0 5
-16 17 -35 28 -19 10 -35 23 -35 27 0 5 -7 6 -16 3 -8 -3 -12 -2 -9 4 6 9 -8
14 -28 11 -5 -1 -6 3 -2 9 3 6 12 7 18 4 8 -5 9 -4 2 4 -5 5 -19 12 -30 14
-11 2 -25 14 -31 26 -6 13 -14 23 -18 23 -20 -2 -27 0 -22 8 4 5 -7 20 -23 34
-17 14 -27 27 -24 31 3 3 -4 4 -16 1 -18 -3 -20 -1 -11 15 9 16 8 18 -6 13
-12 -4 -15 -3 -10 5 4 7 1 12 -9 12 -9 0 -13 5 -10 10 3 6 -1 10 -9 10 -8 0
-18 9 -21 20 -3 11 -11 20 -16 20 -5 0 -9 7 -9 15 0 8 -4 15 -10 15 -5 0 -10
7 -10 16 0 8 -4 12 -10 9 -5 -3 -10 3 -10 15 0 12 -4 18 -10 15 -5 -3 -10 0
-10 8 0 8 -12 27 -27 42 -23 23 -24 27 -8 21 20 -7 20 -7 0 12 -11 11 -23 18
-27 16 -3 -2 -4 6 0 18 3 12 1 19 -5 15 -5 -3 -16 9 -23 28 -8 19 -18 35 -23
35 -5 0 -4 7 3 15 11 13 10 14 -5 9 -12 -5 -16 -4 -12 3 4 6 0 16 -9 23 -8 7
-13 19 -10 26 3 7 0 15 -7 18 -8 3 -7 5 3 5 10 1 8 6 -7 16 -13 9 -20 22 -17
30 4 9 -1 18 -11 21 -13 5 -14 9 -4 15 11 6 10 9 -4 15 -9 3 -17 10 -17 16 0
5 6 6 13 2 6 -4 4 1 -5 12 -14 16 -15 23 -5 34 10 10 9 11 -2 5 -11 -6 -13 -4
-8 8 3 9 1 19 -5 23 -7 5 -8 2 -3 -6 5 -8 4 -11 -2 -7 -5 3 -9 24 -9 46 1 22
-3 39 -9 38 -5 -1 -11 17 -12 40 -1 23 -6 50 -11 60 -4 10 -10 36 -11 58 -2
22 -8 46 -14 53 -7 9 -7 16 1 24 15 15 16 32 2 23 -14 -9 -13 8 2 23 9 9 9 12
-1 12 -11 0 -11 3 0 17 10 11 10 14 2 9 -10 -5 -13 3 -14 31 0 21 -1 53 -2 71
-1 17 0 32 3 32 3 0 5 16 4 36 -2 29 1 34 14 30 15 -5 15 -4 0 7 -14 11 -15
16 -5 27 10 10 9 11 -3 5 -12 -7 -13 -6 -3 6 10 12 10 18 0 28 -6 7 -7 12 -2
11 22 -5 29 1 15 11 -10 7 -11 12 -4 15 6 3 9 15 7 28 -3 13 0 27 7 31 8 5 8
11 -2 23 -11 13 -11 14 1 7 11 -6 13 -4 8 8 -3 10 -3 17 2 17 4 0 5 14 3 31
-3 21 -1 30 6 25 7 -4 9 1 7 14 -2 11 0 20 5 20 4 0 6 9 3 20 -3 11 0 26 6 33
6 8 7 18 3 22 -4 5 2 5 12 1 16 -5 17 -4 6 9 -10 12 -10 18 -1 29 7 8 14 27
16 43 1 15 7 27 12 26 6 -1 10 12 11 30 0 17 6 33 11 35 6 2 11 10 11 18 0 9
5 12 10 9 6 -4 10 -3 9 2 -4 16 13 63 21 58 5 -3 6 5 2 17 -3 13 -1 19 5 15 6
-4 14 0 17 9 4 10 2 13 -7 9 -6 -4 -4 0 5 8 10 8 15 17 11 20 -3 4 -1 7 6 7 7
0 9 5 6 10 -3 6 -2 10 4 10 6 0 20 20 31 45 11 25 25 45 30 45 6 0 9 6 8 13
-2 6 3 11 10 9 8 -1 12 3 10 10 -3 7 15 32 39 55 43 43 54 61 31 47 -7 -4 -2
4 12 18 14 13 28 23 33 21 4 -2 7 1 7 7 0 13 72 86 82 83 4 -2 4 5 1 15 -3 9
-3 14 2 10 4 -4 19 4 32 18 13 14 28 22 35 18 7 -4 8 -3 4 5 -4 6 0 14 8 17 9
3 13 11 9 17 -4 6 0 8 10 4 12 -4 17 -1 18 11 0 10 3 12 6 5 3 -10 8 -10 19 1
8 8 14 20 14 26 0 6 5 8 10 5 6 -3 10 -1 10 5 0 6 4 9 9 6 5 -3 12 1 15 10 3
8 10 13 15 10 5 -3 12 1 15 10 3 8 10 12 16 9 6 -3 13 1 16 9 3 9 10 13 15 10
5 -3 9 0 9 5 0 6 7 11 16 11 9 0 12 5 8 12 -5 8 -2 9 9 5 11 -4 25 2 38 16 12
12 19 15 15 7 -4 -8 0 -6 8 4 9 11 16 16 16 12 0 -5 7 -3 15 4 8 7 15 9 15 4
0 -4 7 1 15 12 13 16 16 17 25 4 8 -13 10 -12 10 4 0 11 3 17 6 13 4 -3 15 4
26 16 11 12 17 17 14 10 -4 -6 -2 -14 3 -17 5 -3 11 1 15 9 3 8 10 15 16 15 6
0 8 -5 4 -12 -4 -7 -3 -8 4 -4 7 4 12 15 12 24 0 13 2 14 9 3 6 -10 10 -10 16
-1 4 6 13 9 20 6 8 -3 15 0 17 6 6 16 40 19 55 6 10 -8 12 -7 7 6 -5 12 -2 15
12 9 13 -5 15 -3 9 8 -7 11 -5 11 10 -1 11 -9 16 -10 11 -2 -5 9 3 12 31 13
21 1 42 1 47 0 5 -1 6 4 3 11 -3 10 8 13 42 12 25 -1 49 4 53 10 5 7 8 4 8 -7
0 -10 5 -15 10 -12 6 4 8 10 5 15 -3 5 0 12 6 16 8 4 9 3 5 -4 -4 -7 -1 -12 9
-12 9 0 14 4 11 8 -5 8 98 6 121 -2 8 -3 11 -1 8 4 -4 7 5 9 25 5 24 -4 30 -2
24 7 -6 10 -4 11 7 1 7 -7 17 -13 22 -13 4 0 5 6 1 13 -6 8 -3 8 9 -2 9 -7 23
-11 31 -8 8 3 17 1 20 -6 2 -7 5 -7 5 -2 1 13 115 8 119 -5 2 -6 8 -10 13 -10
6 0 7 5 3 11 -5 8 -1 8 14 0 11 -6 37 -11 56 -11 22 0 36 -5 36 -12 0 -9 4 -8
10 2 6 10 10 11 10 3 0 -7 5 -13 11 -13 5 0 7 6 4 13 -4 6 0 4 8 -5 10 -13 16
-15 25 -6 9 9 12 9 12 0 0 -6 7 -9 15 -6 9 4 18 -1 21 -11 5 -13 9 -14 15 -3
5 7 9 8 9 2 0 -6 12 -10 26 -8 18 2 24 -2 21 -11 -4 -8 1 -11 12 -8 10 2 23
-3 30 -11 8 -9 18 -16 24 -16 6 0 2 7 -9 16 -18 14 -17 14 6 2 14 -7 29 -11
34 -10 13 4 36 -19 30 -30 -4 -6 3 -5 15 1 14 8 21 8 21 1 0 -5 7 -10 16 -10
8 0 13 -4 10 -8 -2 -4 5 -9 17 -9 12 -1 23 -7 25 -13 2 -5 8 -8 13 -4 5 3 9 0
9 -6 0 -6 5 -8 10 -5 6 3 10 2 10 -4 0 -5 9 -8 20 -6 11 2 23 -1 26 -7 5 -7 2
-8 -7 -3 -8 5 -11 4 -7 0 5 -5 24 -9 44 -11 20 -1 40 -8 45 -16 7 -10 9 -10 9
2 0 10 3 11 8 4 4 -7 39 -11 90 -10 48 1 82 -3 82 -9 0 -7 3 -7 8 0 4 6 27 10
51 10 26 0 45 4 48 12 3 7 9 10 14 7 6 -3 17 0 26 8 12 9 15 9 9 1 -5 -9 -2
-11 8 -7 9 3 13 11 9 18 -4 6 2 4 12 -4 11 -9 16 -10 11 -2 -4 7 -1 12 9 12
10 0 13 5 9 13 -5 8 -2 8 9 -2 10 -8 17 -9 17 -3 0 9 18 19 50 27 21 6 39 18
35 24 -4 8 84 67 96 64 4 -1 4 7 1 19 -3 14 -1 19 6 14 7 -4 12 -2 12 4 0 6 5
8 10 5 6 -4 10 -3 9 2 -3 20 2 46 8 40 3 -4 13 2 20 13 8 12 20 17 26 13 7 -4
6 0 -2 10 -9 11 -10 17 -2 17 6 0 10 4 9 9 -2 5 6 17 17 26 11 9 13 14 5 10
-12 -5 -12 -4 1 7 9 7 15 21 13 31 -1 10 4 21 11 23 8 3 11 12 9 19 -3 7 0 16
6 20 9 6 9 10 -1 16 -11 7 -10 9 5 9 13 0 16 5 12 16 -4 9 -2 22 4 29 7 9 8
15 1 19 -6 4 -8 13 -5 21 4 8 9 13 13 11 3 -2 6 9 7 25 1 15 -2 26 -7 24 -4
-3 -4 8 1 24 5 20 4 38 -5 55 -9 17 -10 28 -3 32 6 4 5 10 -3 15 -11 7 -11 9
-1 9 8 0 10 5 5 13 -4 6 -8 21 -8 32 -1 11 -7 31 -14 44 -11 19 -11 22 1 15
10 -6 11 -5 1 8 -7 8 -10 18 -6 21 3 4 -1 7 -10 7 -9 0 -17 5 -17 11 0 5 4 8
9 5 5 -4 4 5 -2 18 -7 13 -16 22 -21 19 -5 -4 -7 1 -3 10 3 10 2 17 -4 17 -6
0 -7 5 -4 10 3 6 -1 10 -10 10 -9 0 -13 5 -10 10 3 6 1 10 -4 10 -6 0 -10 3
-10 8 4 22 -3 34 -15 29 -10 -4 -13 -1 -9 9 3 7 0 14 -7 14 -6 0 -8 5 -5 10 3
6 1 10 -5 10 -15 0 -41 26 -33 34 4 3 0 6 -8 6 -8 0 -20 9 -27 20 -7 11 -19
20 -28 20 -8 0 -12 5 -9 10 3 6 -3 10 -14 10 -12 0 -21 5 -21 10 0 6 -7 10
-16 10 -8 0 -12 5 -9 10 3 6 -4 10 -17 10 -13 0 -32 7 -42 15 -10 8 -24 11
-30 8 -7 -4 -6 -1 1 8 10 12 7 15 -22 14 -19 -1 -32 2 -29 7 5 7 -3 10 -22 7
-3 0 -12 8 -21 18 -9 11 -12 12 -8 3 4 -9 1 -8 -8 3 -11 14 -16 15 -20 5 -4
-10 -6 -10 -6 0 -1 6 -8 12 -16 12 -8 0 -15 4 -15 10 0 5 -7 7 -16 3 -10 -3
-22 0 -28 8 -11 14 -25 19 -58 22 -10 1 -18 5 -18 9 0 4 -9 8 -19 8 -11 0 -23
5 -26 10 -3 6 -22 10 -41 10 -22 0 -33 4 -29 10 4 7 -3 9 -18 6 -16 -3 -27 1
-31 10 -3 9 -16 12 -36 10 -20 -2 -33 1 -37 10 -3 8 -9 14 -15 14 -5 0 -6 -6
-2 -12 6 -10 4 -10 -7 0 -7 6 -26 12 -42 12 -15 0 -26 4 -23 9 7 11 -13 9 -33
-3 -10 -6 -12 -5 -7 2 7 12 2 14 -46 15 -15 1 -24 5 -22 9 3 4 1 8 -5 8 -5 0
-12 -6 -14 -12 -4 -9 -6 -8 -6 2 -1 17 -37 20 -61 5 -8 -5 -11 -4 -7 2 10 16
-18 24 -33 10 -10 -9 -12 -9 -8 3 5 13 -8 15 -73 15 -44 -1 -79 3 -79 8 0 4
-8 7 -17 5 -10 -1 -24 1 -30 5 -9 6 -13 2 -13 -10 -1 -14 -4 -13 -15 7 -13 22
-14 23 -15 5 0 -17 -2 -17 -10 -5 -8 12 -10 12 -11 -5 0 -15 -2 -16 -7 -5 -5
11 -25 15 -82 15 -41 -1 -80 3 -87 8 -6 4 -14 4 -17 -2 -3 -5 -26 -7 -51 -5
-28 2 -43 0 -40 -6 3 -6 -1 -7 -9 -4 -9 3 -13 10 -10 15 3 5 3 9 0 9 -3 0 -8
-4 -11 -10z m9445 -10 c0 -5 -5 -10 -11 -10 -5 0 -7 5 -4 10 3 6 8 10 11 10 2
0 4 -4 4 -10z m-4560 -1307 c9 8 11 9 6 0 -8 -15 33 -14 53 1 11 8 13 8 8 -1
-5 -8 2 -11 21 -11 16 1 34 -2 41 -6 6 -4 11 -2 11 5 0 8 6 6 18 -4 16 -15 20
-15 40 -1 19 13 21 13 16 0 -4 -11 2 -14 28 -13 19 1 39 -4 46 -13 8 -8 11 -9
7 -2 -3 6 -1 12 4 12 6 0 11 -5 11 -11 0 -8 6 -7 17 2 11 10 14 10 9 2 -5 -9
1 -13 21 -14 15 -1 31 -1 36 0 4 0 7 -4 7 -11 0 -6 3 -8 7 -5 3 4 12 2 20 -4
10 -9 13 -8 13 2 1 9 5 8 15 -5 8 -11 15 -14 15 -7 0 7 5 9 10 6 6 -4 7 -11 4
-17 -4 -6 1 -8 16 -3 13 4 20 3 17 -2 -3 -5 4 -9 16 -8 12 1 28 -5 35 -14 8
-9 11 -10 7 -4 -7 14 20 7 44 -11 7 -5 20 -11 29 -12 8 -2 18 -8 22 -15 5 -6
13 -8 20 -4 9 6 11 4 5 -5 -6 -9 -4 -12 7 -8 8 4 21 -2 29 -13 15 -21 35 -27
23 -6 -4 6 2 4 13 -5 11 -10 25 -18 31 -18 6 0 9 -7 5 -16 -5 -14 -3 -15 15
-5 18 10 22 9 22 -4 0 -9 5 -13 10 -10 6 3 10 -1 10 -11 0 -14 3 -14 15 -4 13
11 14 10 9 -4 -4 -12 0 -16 15 -16 12 0 21 -5 21 -11 0 -5 5 -7 12 -3 7 4 8 3
4 -5 -4 -6 0 -14 11 -18 10 -3 26 -15 36 -27 17 -20 17 -20 11 -1 -3 12 1 9
11 -8 9 -15 20 -25 25 -22 9 6 14 -8 11 -28 -1 -5 3 -6 8 -2 6 3 18 -3 28 -15
10 -11 24 -20 33 -20 13 0 13 -1 0 -10 -11 -7 -11 -10 -2 -10 15 0 72 -56 72
-70 0 -6 4 -9 8 -7 4 1 22 -14 40 -33 18 -19 39 -42 47 -51 8 -9 15 -21 15
-27 0 -6 5 -14 12 -18 7 -4 8 -3 4 4 -4 7 -4 12 -1 12 3 0 14 -18 24 -40 10
-22 20 -38 22 -36 2 3 12 -9 21 -25 10 -17 13 -27 7 -23 -8 4 -7 0 0 -15 12
-22 27 -30 16 -8 -4 6 1 3 9 -7 9 -11 16 -28 16 -39 0 -10 4 -16 8 -13 5 3 15
-10 22 -29 8 -19 18 -35 23 -35 5 0 3 -8 -4 -17 -10 -11 -10 -14 -1 -9 7 4 12
1 12 -9 0 -9 4 -13 10 -10 6 3 7 -1 4 -10 -4 -10 3 -27 17 -42 13 -14 18 -23
12 -19 -9 5 -11 2 -7 -8 3 -9 10 -16 14 -16 5 0 7 -9 5 -21 -3 -14 0 -19 9
-16 14 6 14 -31 0 -55 -5 -10 -4 -11 7 0 7 6 18 12 24 12 5 0 3 -5 -5 -11 -12
-8 -12 -12 -2 -16 10 -4 10 -8 1 -19 -9 -11 -9 -14 1 -14 7 0 10 -7 6 -16 -3
-8 -2 -12 3 -9 5 3 12 1 16 -5 3 -5 0 -10 -7 -10 -9 0 -9 -3 -2 -8 17 -11 25
-42 11 -42 -8 0 -8 -3 2 -9 7 -5 10 -14 7 -20 -4 -6 -2 -11 5 -11 7 0 10 -13
7 -35 -3 -26 0 -35 11 -35 11 0 10 -4 -5 -15 -18 -14 -18 -15 0 -8 14 4 17 2
14 -8 -3 -8 -11 -13 -17 -11 -7 1 -10 -2 -6 -8 3 -6 10 -8 15 -5 8 5 9 -12 11
-127 1 -32 6 -58 11 -58 6 0 5 -7 -2 -15 -7 -8 -8 -15 -3 -15 5 0 9 -9 9 -19
0 -16 -3 -18 -15 -8 -12 10 -13 9 -4 -8 13 -27 7 -179 -8 -184 -8 -2 -7 -6 2
-11 10 -7 10 -12 -2 -26 -8 -10 -9 -15 -2 -11 13 8 12 -10 -1 -32 -5 -8 -10
-28 -10 -45 -1 -17 -5 -37 -10 -44 -4 -6 -4 -16 -1 -22 3 -5 1 -10 -6 -10 -7
0 -9 -3 -6 -7 4 -3 1 -13 -6 -21 -10 -13 -9 -14 3 -7 13 7 13 6 2 -7 -10 -13
-10 -17 0 -21 9 -4 7 -6 -4 -6 -9 -1 -17 -9 -17 -18 0 -27 -6 -52 -16 -60 -4
-4 -5 -2 -1 5 4 6 2 12 -3 12 -13 0 -14 -10 -1 -30 7 -11 3 -20 -13 -33 -20
-17 -20 -18 -2 -13 17 5 16 3 -5 -15 -14 -11 -20 -18 -13 -15 6 4 15 1 19 -5
4 -7 3 -9 -2 -6 -6 3 -16 2 -24 -4 -13 -7 -13 -9 -1 -9 11 0 10 -4 -5 -16 -10
-8 -13 -13 -6 -9 6 3 12 1 12 -4 0 -6 -7 -11 -15 -11 -9 0 -12 -6 -8 -17 4
-11 3 -14 -5 -9 -8 5 -10 2 -6 -8 3 -9 1 -16 -6 -16 -6 0 -8 -4 -5 -10 3 -5 1
-10 -5 -10 -6 0 -8 -4 -5 -10 3 -5 1 -10 -5 -10 -6 0 -8 -4 -5 -10 3 -5 -1
-10 -9 -10 -10 0 -13 -6 -9 -17 5 -12 3 -14 -8 -8 -12 8 -12 6 0 -9 12 -14 12
-17 0 -14 -8 2 -15 -7 -17 -20 -2 -13 -8 -20 -14 -16 -8 5 -9 1 -5 -10 4 -10
3 -15 -3 -11 -6 3 -10 1 -10 -5 0 -6 -4 -8 -10 -5 -5 3 -7 0 -4 -8 3 -8 0 -18
-5 -22 -6 -3 -9 -11 -5 -16 3 -5 0 -8 -8 -7 -7 2 -12 -3 -10 -11 2 -9 -3 -11
-14 -7 -15 6 -15 4 -3 -11 8 -9 9 -14 3 -10 -7 4 -18 -1 -25 -10 -12 -14 -12
-16 0 -8 10 5 12 4 7 -3 -4 -7 -15 -12 -24 -13 -10 0 -12 -3 -5 -6 10 -3 9 -8
-2 -19 -8 -9 -19 -13 -25 -9 -6 4 -7 -1 -3 -11 5 -14 3 -16 -12 -11 -16 7 -16
5 -4 -10 9 -11 10 -14 2 -9 -7 4 -13 3 -13 -3 0 -6 -12 -18 -27 -26 -16 -9
-19 -14 -9 -10 16 5 14 1 -7 -21 -15 -15 -31 -23 -38 -18 -7 4 -9 3 -5 -4 3
-6 -3 -16 -14 -22 -11 -6 -17 -16 -14 -22 4 -7 3 -8 -5 -4 -7 4 -15 -2 -20
-16 -6 -13 -10 -17 -10 -10 -1 7 -6 10 -11 7 -6 -4 -8 -10 -5 -15 3 -4 -2 -11
-11 -14 -10 -4 -13 -2 -9 7 4 6 0 3 -9 -7 -8 -10 -13 -23 -10 -28 3 -5 2 -8
-3 -7 -11 3 -63 -19 -63 -26 0 -4 5 -3 12 1 7 5 8 3 4 -5 -5 -7 -15 -10 -23
-7 -10 4 -13 2 -10 -8 4 -10 1 -13 -8 -9 -8 3 -17 -2 -21 -10 -3 -9 -15 -14
-30 -12 -19 2 -22 0 -13 -11 9 -11 5 -15 -20 -20 -17 -4 -31 -10 -31 -15 0 -5
-7 -9 -16 -9 -8 0 -12 -4 -9 -10 9 -14 -8 -12 -24 3 -11 10 -13 9 -8 -5 4 -10
2 -19 -3 -19 -6 -1 -15 -2 -20 -3 -6 0 -14 -6 -18 -12 -4 -6 -15 -10 -24 -8
-10 1 -18 -4 -18 -11 0 -8 -7 -11 -20 -8 -13 4 -20 0 -20 -9 0 -10 -10 -14
-34 -13 -26 0 -32 -3 -28 -14 4 -10 1 -13 -11 -8 -10 4 -17 1 -17 -6 0 -8 -4
-6 -10 3 -8 12 -10 12 -10 1 0 -8 -3 -11 -7 -8 -3 4 -12 2 -20 -4 -7 -6 -13
-8 -13 -3 0 4 -7 -1 -16 -12 -8 -10 -12 -12 -8 -4 7 13 5 13 -9 1 -14 -11 -17
-11 -17 0 0 11 -2 11 -8 1 -5 -7 -23 -14 -40 -15 -18 -1 -34 -9 -37 -17 -5
-13 -7 -13 -15 0 -6 10 -10 11 -10 3 0 -7 -7 -10 -15 -7 -9 4 -15 0 -15 -7 0
-9 -3 -10 -8 -4 -10 15 -35 18 -26 4 5 -9 1 -10 -14 -7 -13 4 -22 1 -22 -5 0
-7 -5 -5 -10 3 -6 10 -10 11 -10 3 0 -7 -7 -13 -15 -13 -8 0 -15 5 -15 11 0 6
-8 3 -17 -7 -11 -11 -18 -13 -21 -5 -2 6 -8 11 -14 11 -6 0 -7 -7 -4 -16 5
-14 4 -15 -9 -4 -8 7 -15 9 -15 5 0 -4 -7 -2 -15 5 -13 11 -15 10 -9 -6 5 -18
5 -18 -10 0 -9 11 -16 15 -16 9 0 -6 -15 -11 -34 -11 -19 0 -39 -3 -45 -7 -6
-3 -11 -1 -11 4 0 6 -5 11 -11 11 -5 0 -7 -4 -4 -10 3 -6 -1 -7 -9 -4 -9 3
-13 10 -10 15 3 5 -2 6 -10 3 -9 -3 -14 -9 -11 -13 2 -4 -3 -8 -11 -8 -9 0
-13 6 -9 15 4 11 2 12 -7 5 -19 -15 -58 -22 -55 -11 1 6 -4 13 -12 16 -8 2
-11 0 -8 -5 3 -5 -3 -9 -13 -9 -10 0 -16 4 -14 8 3 4 -9 6 -25 4 -18 -2 -36 2
-42 10 -6 8 -17 14 -23 14 -6 0 -4 -4 4 -10 8 -5 12 -12 8 -15 -3 -3 -13 1
-22 10 -12 12 -16 13 -16 3 0 -10 -2 -10 -9 1 -5 7 -13 11 -19 7 -6 -3 -15 2
-21 11 -10 17 -10 17 -11 -2 -1 -11 -4 -15 -6 -8 -3 7 -11 10 -19 7 -7 -3 -16
-1 -20 5 -3 6 -15 11 -26 11 -10 0 -19 5 -19 11 0 5 -5 7 -10 4 -6 -4 -7 -11
-4 -17 4 -7 2 -8 -5 -4 -6 4 -9 12 -6 17 4 5 -8 9 -25 9 -17 0 -29 4 -25 9 3
6 -3 10 -12 10 -38 1 -52 5 -47 12 2 4 0 10 -6 14 -5 3 -10 1 -10 -6 0 -9 -4
-9 -15 1 -8 6 -20 8 -26 4 -8 -5 -9 -3 -4 6 6 10 4 12 -9 7 -11 -5 -15 -3 -10
5 5 8 2 9 -10 5 -10 -4 -15 -3 -11 3 5 9 -23 15 -48 11 -4 0 -6 4 -5 11 2 7
-1 12 -7 13 -5 0 -16 4 -22 8 -7 5 -19 5 -25 1 -8 -5 -7 0 2 11 10 12 10 16 2
11 -7 -4 -19 -2 -27 4 -8 6 -20 8 -27 4 -7 -4 -10 -4 -6 1 7 8 -31 44 -44 41
-3 0 -19 10 -34 24 -16 14 -24 18 -19 10 6 -9 3 -8 -7 2 -9 10 -24 18 -35 18
-15 0 -16 2 -3 10 13 8 12 10 -3 10 -10 0 -15 5 -12 10 4 6 3 10 -2 9 -21 -4
-32 3 -38 21 -3 11 -13 20 -21 20 -18 0 -80 59 -76 72 1 4 -5 8 -14 8 -18 0
-46 25 -37 34 4 3 -1 6 -10 6 -15 0 -22 11 -18 33 0 4 -4 6 -10 5 -6 -2 -16 6
-22 17 -17 28 -34 45 -46 45 -5 0 -13 5 -17 12 -4 7 -3 8 4 4 7 -4 12 -3 12 3
0 5 -9 13 -20 16 -17 6 -25 22 -21 47 0 4 -7 4 -17 1 -9 -3 -14 -3 -10 1 6 8
1 17 -30 51 -7 8 -11 19 -8 24 4 5 -4 18 -17 28 -13 10 -23 26 -21 36 1 9 -1
15 -5 12 -5 -2 -14 8 -22 23 -7 15 -22 39 -32 54 -10 16 -15 32 -12 38 3 5 2
10 -2 10 -13 0 -46 79 -39 95 3 8 0 17 -6 21 -7 5 -8 2 -3 -6 5 -9 4 -11 -4
-6 -7 4 -10 13 -8 19 2 7 -3 18 -12 25 -9 8 -10 11 -3 7 6 -3 12 -2 12 3 0 6
-6 12 -14 15 -8 3 -13 14 -11 24 1 10 -3 24 -9 32 -7 10 -7 13 0 8 6 -3 11 0
11 8 0 8 -4 12 -9 9 -7 -5 -12 18 -9 39 0 4 -5 7 -11 7 -9 0 -8 4 2 10 8 5 10
10 4 10 -11 0 -14 13 -15 58 -1 12 -5 22 -9 22 -4 0 -7 12 -7 27 0 15 -6 29
-12 31 -6 2 -8 8 -5 13 3 6 12 5 22 -3 16 -12 16 -11 1 7 -9 11 -15 30 -14 43
1 12 -3 22 -9 22 -6 0 -4 5 4 10 12 8 12 10 1 10 -11 0 -11 3 -1 15 9 11 9 15
1 15 -7 0 -9 5 -6 10 3 6 1 10 -6 10 -7 0 -4 7 7 16 10 8 14 13 8 10 -7 -3
-15 1 -18 10 -3 8 -2 12 4 9 6 -3 10 -2 10 4 0 5 3 16 6 24 3 10 -2 18 -17 22
-20 7 -20 8 -6 17 12 6 15 14 9 26 -7 15 -8 33 -3 90 1 7 5 11 10 7 10 -5 5
40 -5 57 -3 4 0 8 7 8 10 0 10 3 2 11 -13 13 -5 42 9 33 6 -4 4 4 -2 17 -11
19 -10 24 6 36 10 7 13 13 7 13 -13 0 -11 25 2 37 4 4 5 2 0 -6 -5 -9 -4 -12
3 -7 7 4 8 17 2 37 -7 22 -5 31 5 35 7 3 12 16 10 29 -1 13 3 26 10 29 6 2 11
20 10 40 0 26 3 35 12 32 15 -6 13 15 -2 26 -6 5 -5 8 3 8 6 0 12 7 12 16 0 8
5 12 11 8 8 -5 8 -1 0 14 -9 17 -8 23 5 30 9 5 17 20 17 34 1 16 7 24 15 21 6
-3 12 -1 12 4 0 5 -6 15 -12 22 -11 10 -9 11 6 5 13 -5 17 -4 12 4 -3 6 -2 13
4 17 6 4 8 11 5 16 -4 5 -2 9 4 9 6 0 13 11 17 25 3 14 11 25 16 25 6 0 5 7
-2 15 -11 13 -10 14 5 9 12 -5 16 -3 13 7 -2 7 5 22 17 34 12 11 20 25 18 32
-2 6 5 17 16 23 12 6 21 20 21 31 0 11 4 18 9 15 5 -3 11 4 14 15 4 14 10 18
19 13 7 -4 10 -4 6 1 -4 4 0 14 10 22 9 8 11 12 5 8 -7 -3 -13 -2 -13 3 0 5
12 14 26 20 14 7 23 16 20 20 -3 5 4 15 15 22 10 8 19 19 19 26 0 6 11 17 25
24 13 7 22 17 19 22 -3 4 2 8 11 8 9 0 19 9 22 20 3 11 12 20 20 20 8 0 11 5
7 12 -5 8 -2 9 10 5 10 -4 15 -3 11 3 -3 6 -1 10 5 10 6 0 8 5 5 10 -5 9 7 14
27 12 3 -1 12 6 20 16 12 16 11 16 -7 2 -20 -15 -20 -15 -1 8 11 12 26 20 33
18 7 -3 13 1 13 9 0 8 6 14 13 12 6 -1 11 3 10 9 -1 7 11 14 27 18 17 3 29 11
28 18 -2 7 3 12 10 11 6 -2 12 5 12 15 0 14 2 15 10 2 6 -10 10 -11 10 -2 0 6
6 12 14 12 8 0 18 5 22 12 4 7 3 8 -4 4 -18 -11 -14 0 5 15 11 10 14 10 9 2
-4 -7 -3 -13 3 -13 5 0 14 8 20 18 5 9 12 16 15 15 15 -7 26 -2 20 9 -5 7 -2
9 9 5 9 -3 18 0 21 9 3 8 17 14 31 14 14 0 25 5 25 11 0 5 10 9 23 7 17 -2 21
1 19 16 -3 18 -2 18 14 5 10 -7 15 -9 11 -3 -4 7 0 15 9 18 10 4 13 2 9 -7 -4
-6 0 -4 8 5 11 14 16 15 26 5 10 -9 12 -9 9 3 -2 8 3 14 10 13 6 -2 12 3 12
10 0 8 4 7 10 -3 6 -9 10 -10 10 -3 0 6 9 10 20 8 11 -2 18 0 15 5 -3 5 -1 11
5 15 5 3 10 0 10 -7 0 -10 2 -10 8 -1 4 6 19 13 32 15 14 2 31 7 38 11 6 5 17
5 22 2 6 -3 10 -1 10 6 0 8 3 9 13 0 11 -8 18 -6 32 9 13 15 21 17 31 9 9 -7
15 -5 23 8 10 17 10 17 11 0 0 -10 5 -15 10 -12 6 4 7 12 3 18 -4 8 -1 7 9 -1
12 -9 18 -10 23 -2 4 7 16 10 26 7 10 -3 21 -2 23 2 3 4 24 6 47 4 24 -1 50 3
58 10 12 9 13 9 7 0 -4 -7 -3 -13 1 -13 5 0 15 6 22 13 9 8 12 8 7 0 -4 -8 4
-11 26 -9 22 2 32 8 30 17 -3 9 2 8 15 -4 15 -13 22 -14 33 -4z m-3240 -63 c0
-5 -5 -10 -11 -10 -5 0 -7 5 -4 10 3 6 8 10 11 10 2 0 4 -4 4 -10z m-109 -93
c-10 -9 -11 -8 -5 6 3 10 9 15 12 12 3 -3 0 -11 -7 -18z m2403 -2975 c3 -5 -1
-9 -9 -9 -8 0 -12 4 -9 9 3 4 7 8 9 8 2 0 6 -4 9 -8z m-4039 -242 c3 -5 1 -10
-4 -10 -6 0 -11 5 -11 10 0 6 2 10 4 10 3 0 8 -4 11 -10z m1805 -894 c0 -3 -4
-8 -10 -11 -5 -3 -10 -1 -10 4 0 6 5 11 10 11 6 0 10 -2 10 -4z m-3060 -20 c0
-3 -4 -8 -10 -11 -5 -3 -10 -1 -10 4 0 6 5 11 10 11 6 0 10 -2 10 -4z m3210
-1356 c0 -5 -5 -10 -11 -10 -5 0 -7 5 -4 10 3 6 8 10 11 10 2 0 4 -4 4 -10z"/>
<path d="M6290 8900 c0 -5 5 -10 11 -10 5 0 7 5 4 10 -3 6 -8 10 -11 10 -2 0
-4 -4 -4 -10z"/>
<path d="M8150 11630 c0 -5 5 -10 10 -10 6 0 10 5 10 10 0 6 -4 10 -10 10 -5
0 -10 -4 -10 -10z"/>
<path d="M6265 11120 c-3 -6 1 -7 9 -4 18 7 21 14 7 14 -6 0 -13 -4 -16 -10z"/>
<path d="M9880 10946 c0 -2 8 -10 18 -17 15 -13 16 -12 3 4 -13 16 -21 21 -21
13z"/>
<path d="M10680 10900 c-9 -6 -10 -10 -3 -10 6 0 15 5 18 10 8 12 4 12 -15 0z"/>
<path d="M4967 10789 c7 -7 15 -10 18 -7 3 3 -2 9 -12 12 -14 6 -15 5 -6 -5z"/>
<path d="M13650 9990 c0 -5 5 -10 11 -10 5 0 7 5 4 10 -3 6 -8 10 -11 10 -2 0
-4 -4 -4 -10z"/>
<path d="M1580 8440 c0 -5 5 -10 11 -10 5 0 7 5 4 10 -3 6 -8 10 -11 10 -2 0
-4 -4 -4 -10z"/>
<path d="M12586 6938 c3 -5 10 -6 15 -3 13 9 11 12 -6 12 -8 0 -12 -4 -9 -9z"/>
<path d="M12746 6938 c3 -5 10 -6 15 -3 13 9 11 12 -6 12 -8 0 -12 -4 -9 -9z"/>
<path d="M6275 5801 c-3 -5 -2 -12 3 -15 5 -3 9 1 9 9 0 17 -3 19 -12 6z"/>
<path d="M12956 5632 c-3 -5 1 -9 9 -9 8 0 12 4 9 9 -3 4 -7 8 -9 8 -2 0 -6
-4 -9 -8z"/>
<path d="M6275 5560 c-3 -5 -1 -10 4 -10 6 0 11 5 11 10 0 6 -2 10 -4 10 -3 0
-8 -4 -11 -10z"/>
<path d="M6275 5080 c-3 -5 -1 -10 4 -10 6 0 11 5 11 10 0 6 -2 10 -4 10 -3 0
-8 -4 -11 -10z"/>
</g>
</svg>
